<svg xmlns="http://www.w3.org/2000/svg" viewBox="0 18.149999618530273 226.39999389648438 47.25" data-asc="1.303" width="226.39999389648438" height="47.25"><defs/><g fill="#a77bf7"><g transform="translate(0, 0)"><path d="M12.20 65.40Q8.75 65.40 5.97 63.70Q3.20 62.00 1.60 58.77Q0 55.55 0 51.15Q0 43.55 3.25 37.07Q6.50 30.60 12.85 26.67Q19.20 22.75 28.10 22.75Q30.40 22.75 33.03 23.10Q35.65 23.45 37.80 24.15Q39.20 24.55 39.20 26.15Q39.20 27.45 38.23 28.60Q37.25 29.75 35.95 29.75Q35.55 29.75 35.35 29.70Q32.75 29.10 30.90 28.82Q29.05 28.55 27 28.55Q20.65 28.55 16.20 31.62Q11.75 34.70 9.55 39.75Q7.35 44.80 7.35 50.65Q7.35 54.90 9.03 57.22Q10.70 59.55 13.40 59.55Q16.45 59.55 18.75 57.05Q21.05 54.55 22.95 48.95Q24.85 43.35 26.70 33.75Q27 32.35 27.90 31.85Q28.80 31.35 30.30 31.35Q33.85 31.35 33.85 33.65Q33.85 34.05 33.70 34.65Q32.40 39.50 31.32 45.37Q30.25 51.25 30.25 54.30Q30.25 57.00 31.05 58.22Q31.85 59.45 33.50 59.45Q35.10 59.45 36.55 58.37Q38.00 57.30 40.20 54.70Q40.80 54.00 41.55 54.00Q42.20 54.00 42.58 54.60Q42.95 55.20 42.95 56.25Q42.95 58.20 42.00 59.35Q39.55 62.30 37.20 63.85Q34.85 65.40 31.45 65.40Q27.95 65.40 25.80 63.37Q23.65 61.35 23.10 57.65Q19.40 65.40 12.20 65.40ZM65.50 49.80Q66.15 49.80 66.50 50.45Q66.85 51.10 66.85 52.10Q66.85 53.35 66.50 54.02Q66.15 54.70 65.40 54.95Q62.40 56.00 58.80 56.15Q57.80 60.30 55.03 62.85Q52.25 65.40 48.90 65.40Q43.85 65.40 41.55 61.55Q39.25 57.70 39.25 50.40Q39.25 43.95 40.85 36.37Q42.45 28.80 45.53 23.47Q48.60 18.15 52.85 18.15Q55.15 18.15 56.55 20.12Q57.95 22.10 57.95 25.25Q57.95 29.35 56.40 33.40Q54.85 37.45 51.25 41.90Q54.60 42.15 56.70 44.67Q58.80 47.20 59.20 50.90Q61.55 50.75 64.80 49.90Q65.10 49.80 65.50 49.80M51.70 23.10Q50.70 23.10 49.53 26.07Q48.35 29.05 47.35 34.15Q46.35 39.25 45.85 45.30Q49.15 39.25 51.13 34.62Q53.10 30.00 53.10 26.40Q53.10 24.80 52.73 23.95Q52.35 23.10 51.70 23.10M49.10 60.10Q50.65 60.10 51.85 58.80Q53.05 57.50 53.45 55.05Q51.90 54.00 51.08 52.30Q50.25 50.60 50.25 48.70Q50.25 48.00 50.45 46.80L50.30 46.80Q48.25 46.80 46.88 48.82Q45.50 50.85 45.50 54.25Q45.50 57.10 46.58 58.60Q47.65 60.10 49.10 60.10ZM88.05 49.80Q88.70 49.80 89.05 50.45Q89.40 51.10 89.40 52.10Q89.40 54.50 87.95 54.95Q84.95 56.00 81.35 56.15Q80.40 60.35 77.60 62.87Q74.80 65.40 71.25 65.40Q68.25 65.40 66.13 63.95Q64 62.50 62.90 60.10Q61.80 57.70 61.80 54.90Q61.80 51.10 63.25 48.12Q64.70 45.15 67.25 43.47Q69.80 41.80 72.90 41.80Q76.70 41.80 79.03 44.42Q81.35 47.05 81.75 50.90Q84.10 50.75 87.35 49.90Q87.75 49.80 88.05 49.80M71.65 60.10Q73.25 60.10 74.43 58.80Q75.60 57.50 76 55.05Q74.45 54.00 73.63 52.30Q72.80 50.60 72.80 48.70Q72.80 47.90 72.95 47.10L72.70 47.10Q70.70 47.10 69.38 49.02Q68.05 50.95 68.05 54.45Q68.05 57.20 69.13 58.65Q70.20 60.10 71.65 60.10ZM90.20 65.40Q87.95 65.40 86.53 63.32Q85.10 61.25 85.10 58.15Q85.10 54.40 85.60 51.27Q86.10 48.15 87.25 44.65Q87.75 43.15 88.65 42.50Q89.55 41.85 91.50 41.85Q92.60 41.85 93.03 42.20Q93.45 42.55 93.45 43.25Q93.45 43.65 92.90 45.95Q92.40 47.80 92.10 49.30Q91.10 54.55 91.10 56.30Q91.10 57.35 91.35 57.77Q91.60 58.20 92.15 58.20Q92.90 58.20 94.03 56.70Q95.15 55.20 96.43 52.15Q97.70 49.10 98.90 44.65Q99.30 43.15 100.13 42.50Q100.95 41.85 102.60 41.85Q103.75 41.85 104.20 42.12Q104.65 42.40 104.65 43.15Q104.65 44.40 103.40 50.00Q102 56.40 102 57.90Q102 58.85 102.40 59.37Q102.80 59.90 103.45 59.90Q104.45 59.90 105.83 58.67Q107.20 57.45 109.50 54.70Q110.10 54.00 110.85 54.00Q111.50 54.00 111.88 54.60Q112.25 55.20 112.25 56.25Q112.25 58.25 111.30 59.35Q109.15 62.00 106.68 63.70Q104.20 65.40 101.05 65.40Q98.65 65.40 97.53 63.55Q96.40 61.70 96.40 58.35Q95.55 61.75 93.85 63.57Q92.15 65.40 90.20 65.40ZM130.50 54.00Q131.15 54.00 131.53 54.60Q131.90 55.20 131.90 56.25Q131.90 58.25 130.95 59.35Q128.80 62.00 126.25 63.70Q123.70 65.40 120.40 65.40Q110.20 65.40 110.20 51.05Q110.20 48.85 110.35 46.60L108.40 46.60Q106.90 46.60 106.38 46.05Q105.85 45.50 105.85 44.30Q105.85 41.50 108.10 41.50L110.95 41.50Q111.80 36.00 113.55 31.45Q115.30 26.90 117.78 24.20Q120.25 21.50 123.10 21.50Q125.20 21.50 126.40 23.35Q127.60 25.20 127.60 28.00Q127.60 35.75 121.10 41.50L126.70 41.50Q127.50 41.50 127.85 41.85Q128.20 42.20 128.20 43.15Q128.20 46.60 122.55 46.60L116.45 46.60Q116.35 49.10 116.35 50.50Q116.35 55.70 117.58 57.80Q118.80 59.90 121.45 59.90Q123.60 59.90 125.25 58.60Q126.90 57.30 129.15 54.70Q129.75 54.00 130.50 54.00M121.75 26.30Q121.00 26.30 120.08 28.17Q119.15 30.05 118.33 33.37Q117.50 36.70 116.95 40.75Q119.90 38.20 121.38 35.02Q122.85 31.85 122.85 29.25Q122.85 26.30 121.75 26.30ZM150.30 65.40Q148.45 65.40 147.65 64.57Q146.85 63.75 146.85 61.45Q146.85 59.90 147.18 57.47Q147.50 55.05 148.25 50.80Q149.55 42.95 150.30 37.20Q150.75 33.60 150.75 31.20Q150.75 28.95 149.10 28.95Q147.80 28.95 145.98 30.27Q144.15 31.60 141.95 34.50Q141.25 35.45 140.40 35.45Q139.70 35.45 139.18 34.77Q138.65 34.10 138.65 33.25Q138.65 32.45 138.98 31.62Q139.30 30.80 140.05 29.75Q142.45 26.40 145.40 24.57Q148.35 22.75 151.30 22.75Q154.05 22.75 155.53 24.50Q157.00 26.25 157.00 29.60Q157.00 30.95 156.75 32.77Q156.50 34.60 156.30 35.75Q156.10 36.90 156.00 37.35Q158.85 29.20 162.40 25.97Q165.95 22.75 170.20 22.75Q173.45 22.75 175.33 25.05Q177.20 27.35 177.20 31.55Q177.20 33.20 176.75 35.65Q179.25 28.75 182.60 25.75Q185.95 22.75 190.30 22.75Q193.80 22.75 195.68 25.00Q197.55 27.25 197.55 31.30Q197.55 33.50 196.90 36.65L193.85 50.95Q193.35 53.45 193.35 55.25Q193.35 57.35 194.33 58.40Q195.30 59.45 197.05 59.45Q198.70 59.45 200.28 58.35Q201.85 57.25 204 54.70Q204.60 54.00 205.35 54.00Q206 54.00 206.38 54.60Q206.75 55.20 206.75 56.25Q206.75 58.20 205.80 59.35Q203.20 62.50 200.65 63.95Q198.10 65.40 195.30 65.40Q191.05 65.40 188.65 62.87Q186.25 60.35 186.25 56.10Q186.25 53.15 187.45 47.55L189.45 38.40Q189.55 37.95 189.80 36.80Q190.05 35.65 190.20 34.62Q190.35 33.60 190.35 32.60Q190.35 30.85 189.68 29.97Q189.00 29.10 187.75 29.10Q185.40 29.10 182.83 32.12Q180.25 35.15 177.93 42.15Q175.60 49.15 174.15 60.35Q173.80 63.35 172.93 64.37Q172.05 65.40 170.10 65.40Q168.40 65.40 167.63 64.60Q166.85 63.80 166.85 61.60Q166.85 59.55 167.40 56.22Q167.95 52.90 168.80 48.40Q171.10 36.30 171.10 32.80Q171.10 30.90 170.38 30.00Q169.65 29.10 168.20 29.10Q165.75 29.10 163.15 31.87Q160.55 34.65 158.08 41.72Q155.60 48.80 153.95 60.85Q153.60 63.40 152.93 64.40Q152.25 65.40 150.30 65.40ZM225 54.00Q225.65 54.00 226.03 54.60Q226.40 55.20 226.40 56.25Q226.40 58.25 225.45 59.35Q223.60 61.60 220.23 63.50Q216.85 65.40 213 65.40Q207.75 65.40 204.85 62.55Q201.95 59.70 201.95 54.75Q201.95 51.30 203.40 48.32Q204.85 45.35 207.43 43.60Q210 41.85 213.25 41.85Q216.15 41.85 217.90 43.57Q219.65 45.30 219.65 48.25Q219.65 51.70 217.18 54.17Q214.70 56.65 208.80 58.10Q210.05 60.40 213.55 60.40Q215.80 60.40 218.68 58.82Q221.55 57.25 223.65 54.70Q224.25 54.00 225 54.00M212.40 46.75Q210.55 46.75 209.28 48.90Q208 51.05 208 54.10L208 54.20Q210.95 53.50 212.65 52.10Q214.35 50.70 214.35 48.85Q214.35 47.90 213.83 47.32Q213.30 46.75 212.40 46.75Z"/></g></g></svg>