<svg xmlns="http://www.w3.org/2000/svg" viewBox="0 18.149999618530273 342.79998779296875 47.25" data-asc="1.303" width="342.79998779296875" height="47.25"><defs/><g fill="#a77bf7"><g transform="translate(0, 0)"><path d="M19.45 65.40Q13.50 65.40 9.10 63.22Q4.70 61.05 2.35 57.05Q0 53.05 0 47.75Q0 40.40 2.78 34.70Q5.55 29.00 10.30 25.87Q15.05 22.75 20.85 22.75Q26.25 22.75 29.05 25.52Q31.85 28.30 31.85 32.85Q31.85 35.90 30.78 37.75Q29.70 39.60 27.70 39.60Q26.30 39.60 25.50 38.95Q24.70 38.30 24.70 37.05Q24.70 36.60 24.90 35.40Q25.20 33.90 25.20 33.00Q25.20 28.45 20.35 28.45Q17.05 28.45 14.05 30.60Q11.05 32.75 9.20 36.92Q7.35 41.10 7.35 46.85Q7.35 52.85 10.70 56.12Q14.05 59.40 20.60 59.40Q23.85 59.40 27.18 58.57Q30.50 57.75 34.55 56.05Q35.30 55.75 35.80 55.75Q36.60 55.75 37 56.35Q37.40 56.95 37.40 57.90Q37.40 60.95 34.10 62.40Q30.55 63.95 26.73 64.67Q22.90 65.40 19.45 65.40ZM59.00 49.80Q59.65 49.80 60.00 50.45Q60.35 51.10 60.35 52.10Q60.35 54.50 58.90 54.95Q55.90 56.00 52.30 56.15Q51.35 60.35 48.55 62.87Q45.75 65.40 42.20 65.40Q39.20 65.40 37.08 63.95Q34.95 62.50 33.85 60.10Q32.75 57.70 32.75 54.90Q32.75 51.10 34.20 48.12Q35.65 45.15 38.20 43.47Q40.75 41.80 43.85 41.80Q47.65 41.80 49.98 44.42Q52.30 47.05 52.70 50.90Q55.05 50.75 58.30 49.90Q58.70 49.80 59.00 49.80M42.60 60.10Q44.20 60.10 45.38 58.80Q46.55 57.50 46.95 55.05Q45.40 54.00 44.58 52.30Q43.75 50.60 43.75 48.70Q43.75 47.90 43.90 47.10L43.65 47.10Q41.65 47.10 40.33 49.02Q39.00 50.95 39.00 54.45Q39.00 57.20 40.08 58.65Q41.15 60.10 42.60 60.10ZM59.60 65.40Q57.70 65.40 56.93 63.40Q56.15 61.40 56.15 57.00Q56.15 50.50 58.00 44.65Q58.45 43.20 59.48 42.52Q60.50 41.85 62.35 41.85Q63.35 41.85 63.75 42.10Q64.15 42.35 64.15 43.05Q64.15 43.85 63.40 46.65Q62.90 48.65 62.60 50.15Q62.30 51.65 62.10 53.85Q63.75 49.55 65.80 46.85Q67.85 44.15 69.83 43.00Q71.80 41.85 73.45 41.85Q76.70 41.85 76.70 45.10Q76.70 47.05 75.60 52.15Q74.65 56.50 74.65 57.90Q74.65 59.90 76.10 59.90Q77.10 59.90 78.48 58.67Q79.85 57.45 82.15 54.70Q82.75 54.00 83.50 54.00Q84.15 54.00 84.53 54.60Q84.90 55.20 84.90 56.25Q84.90 58.25 83.95 59.35Q81.80 62.00 79.33 63.70Q76.85 65.40 73.70 65.40Q71.15 65.40 69.85 63.92Q68.55 62.45 68.55 59.65Q68.55 58.25 69.25 54.65Q69.90 51.50 69.90 50.30Q69.90 49.50 69.35 49.50Q68.70 49.50 67.53 51.17Q66.35 52.85 65.13 55.60Q63.90 58.35 63.15 61.40Q62.60 63.75 61.88 64.57Q61.15 65.40 59.60 65.40ZM84.40 65.40Q82.50 65.40 81.73 63.40Q80.95 61.40 80.95 57.00Q80.95 50.50 82.80 44.65Q83.25 43.20 84.28 42.52Q85.30 41.85 87.15 41.85Q88.15 41.85 88.55 42.10Q88.95 42.35 88.95 43.05Q88.95 43.85 88.20 46.65Q87.70 48.65 87.40 50.15Q87.10 51.65 86.90 53.85Q88.55 49.55 90.60 46.85Q92.65 44.15 94.63 43.00Q96.60 41.85 98.25 41.85Q101.50 41.85 101.50 45.10Q101.50 47.05 100.40 52.15Q99.45 56.50 99.45 57.90Q99.45 59.90 100.90 59.90Q101.90 59.90 103.28 58.67Q104.65 57.45 106.95 54.70Q107.55 54.00 108.30 54.00Q108.95 54.00 109.33 54.60Q109.70 55.20 109.70 56.25Q109.70 58.25 108.75 59.35Q106.60 62.00 104.13 63.70Q101.65 65.40 98.50 65.40Q95.95 65.40 94.65 63.92Q93.35 62.45 93.35 59.65Q93.35 58.25 94.05 54.65Q94.70 51.50 94.70 50.30Q94.70 49.50 94.15 49.50Q93.50 49.50 92.33 51.17Q91.15 52.85 89.93 55.60Q88.70 58.35 87.95 61.40Q87.40 63.75 86.67 64.57Q85.95 65.40 84.40 65.40ZM127.95 54.00Q128.60 54.00 128.97 54.60Q129.35 55.20 129.35 56.25Q129.35 58.25 128.40 59.35Q126.55 61.60 123.17 63.50Q119.80 65.40 115.95 65.40Q110.70 65.40 107.80 62.55Q104.90 59.70 104.90 54.75Q104.90 51.30 106.35 48.32Q107.80 45.35 110.38 43.60Q112.95 41.85 116.20 41.85Q119.10 41.85 120.85 43.57Q122.60 45.30 122.60 48.25Q122.60 51.70 120.13 54.17Q117.65 56.65 111.75 58.10Q113 60.40 116.50 60.40Q118.75 60.40 121.63 58.82Q124.50 57.25 126.60 54.70Q127.20 54.00 127.95 54.00M115.35 46.75Q113.50 46.75 112.22 48.90Q110.95 51.05 110.95 54.10L110.95 54.20Q113.90 53.50 115.60 52.10Q117.30 50.70 117.30 48.85Q117.30 47.90 116.78 47.32Q116.25 46.75 115.35 46.75ZM134.85 65.40Q129.95 65.40 127.23 62.62Q124.50 59.85 124.50 55.30Q124.50 51.25 126.10 48.20Q127.70 45.15 130.25 43.50Q132.80 41.85 135.60 41.85Q138.35 41.85 139.88 43.47Q141.40 45.10 141.40 47.65Q141.40 49.75 140.47 51.20Q139.55 52.65 138.05 52.65Q137.10 52.65 136.53 52.20Q135.95 51.75 135.95 50.95Q135.95 50.60 136.05 50.15Q136.15 49.70 136.20 49.50Q136.45 48.75 136.45 48.10Q136.45 47.45 136.13 47.10Q135.80 46.75 135.20 46.75Q134.05 46.75 133.05 47.77Q132.05 48.80 131.45 50.55Q130.85 52.30 130.85 54.40Q130.85 60.20 135.90 60.20Q137.95 60.20 140.33 58.82Q142.70 57.45 145 54.70Q145.60 54.00 146.35 54.00Q147 54.00 147.38 54.60Q147.75 55.20 147.75 56.25Q147.75 58.15 146.80 59.35Q144.45 62.25 141.18 63.82Q137.90 65.40 134.85 65.40ZM166 54.00Q166.65 54.00 167.03 54.60Q167.40 55.20 167.40 56.25Q167.40 58.25 166.45 59.35Q164.30 62.00 161.75 63.70Q159.20 65.40 155.90 65.40Q145.70 65.40 145.70 51.05Q145.70 48.85 145.85 46.60L143.90 46.60Q142.40 46.60 141.88 46.05Q141.35 45.50 141.35 44.30Q141.35 41.50 143.60 41.50L146.45 41.50Q147.30 36.00 149.05 31.45Q150.80 26.90 153.28 24.20Q155.75 21.50 158.60 21.50Q160.70 21.50 161.90 23.35Q163.10 25.20 163.10 28.00Q163.10 35.75 156.60 41.50L162.20 41.50Q163 41.50 163.35 41.85Q163.70 42.20 163.70 43.15Q163.70 46.60 158.05 46.60L151.95 46.60Q151.85 49.10 151.85 50.50Q151.85 55.70 153.08 57.80Q154.30 59.90 156.95 59.90Q159.10 59.90 160.75 58.60Q162.40 57.30 164.65 54.70Q165.25 54.00 166 54.00M157.25 26.30Q156.50 26.30 155.58 28.17Q154.65 30.05 153.83 33.37Q153 36.70 152.45 40.75Q155.40 38.20 156.88 35.02Q158.35 31.85 158.35 29.25Q158.35 26.30 157.25 26.30ZM213.90 49.95Q214.05 49.90 214.40 49.90Q215.15 49.90 215.55 50.40Q215.95 50.90 215.95 51.75Q215.95 53.30 215.35 54.17Q214.75 55.05 213.55 55.45Q211.25 56.20 208.65 56.20Q206.45 56.20 204.50 55.60Q203.05 57.95 201.30 60.45Q199.30 63.30 197.88 64.35Q196.45 65.40 194.65 65.40Q192.65 65.40 191.63 63.85Q190.60 62.30 190.35 58.75L190.10 55.10Q188.55 59.30 187.33 61.50Q186.10 63.70 184.88 64.55Q183.65 65.40 182.00 65.40Q179.95 65.40 178.78 63.80Q177.60 62.20 177.30 58.75Q176.70 51.75 176.70 46.50L176.70 44.75Q176.75 43.10 177.60 42.45Q178.45 41.80 180.15 41.80Q181.45 41.80 182.08 42.37Q182.70 42.95 182.70 44.30Q182.70 50.05 183.40 59.25Q186.80 52.10 189.65 44.35Q190.20 42.85 190.98 42.32Q191.75 41.80 192.85 41.80Q194.20 41.80 194.73 42.35Q195.25 42.90 195.25 44.30Q195.25 50.05 195.95 59.25Q198.95 54.80 200.45 52.15Q199.70 50.70 199.70 48.70Q199.70 47.00 200.45 45.40Q201.20 43.80 202.50 42.80Q203.80 41.80 205.45 41.80Q206.90 41.80 207.80 42.82Q208.70 43.85 208.70 45.80Q208.70 48.05 207.50 50.95Q209.40 50.85 212.55 50.20L213.90 49.95ZM218.15 38.55Q216.05 38.55 215.00 37.57Q213.95 36.60 213.95 34.85Q213.95 33.10 215.33 31.92Q216.70 30.75 218.75 30.75Q220.60 30.75 221.75 31.65Q222.90 32.55 222.90 34.20Q222.90 36.20 221.60 37.37Q220.30 38.55 218.15 38.55M217.75 65.40Q214.50 65.40 213.03 63.10Q211.55 60.80 211.55 57.00Q211.55 54.75 212.13 51.22Q212.70 47.70 213.60 44.65Q214.05 43.05 214.80 42.45Q215.55 41.85 217.20 41.85Q219.75 41.85 219.75 43.55Q219.75 44.80 218.80 49.35Q217.60 54.85 217.60 56.80Q217.60 58.30 218.00 59.10Q218.40 59.90 219.35 59.90Q220.25 59.90 221.60 58.65Q222.95 57.40 225.20 54.70Q225.80 54.00 226.55 54.00Q227.20 54.00 227.58 54.60Q227.95 55.20 227.95 56.25Q227.95 58.25 227.00 59.35Q222.05 65.40 217.75 65.40ZM246.20 54.00Q246.85 54.00 247.23 54.60Q247.60 55.20 247.60 56.25Q247.60 58.25 246.65 59.35Q244.50 62.00 241.95 63.70Q239.40 65.40 236.10 65.40Q225.90 65.40 225.90 51.05Q225.90 48.85 226.05 46.60L224.10 46.60Q222.60 46.60 222.08 46.05Q221.55 45.50 221.55 44.30Q221.55 41.50 223.80 41.50L226.65 41.50Q227.50 36.00 229.25 31.45Q231.00 26.90 233.48 24.20Q235.95 21.50 238.80 21.50Q240.90 21.50 242.10 23.35Q243.30 25.20 243.30 28.00Q243.30 35.75 236.80 41.50L242.40 41.50Q243.20 41.50 243.55 41.85Q243.90 42.20 243.90 43.15Q243.90 46.60 238.25 46.60L232.15 46.60Q232.05 49.10 232.05 50.50Q232.05 55.70 233.28 57.80Q234.50 59.90 237.15 59.90Q239.30 59.90 240.95 58.60Q242.60 57.30 244.85 54.70Q245.45 54.00 246.20 54.00M237.45 26.30Q236.70 26.30 235.78 28.17Q234.85 30.05 234.03 33.37Q233.20 36.70 232.65 40.75Q235.60 38.20 237.08 35.02Q238.55 31.85 238.55 29.25Q238.55 26.30 237.45 26.30ZM271.30 54.00Q271.95 54.00 272.33 54.60Q272.70 55.20 272.70 56.25Q272.70 58.25 271.75 59.35Q269.45 62.00 267.03 63.70Q264.60 65.40 261.50 65.40Q258.95 65.40 257.65 63.92Q256.35 62.45 256.35 59.65Q256.35 58.25 257.05 54.65Q257.70 51.50 257.70 50.30Q257.70 49.50 257.15 49.50Q256.50 49.50 255.30 51.17Q254.10 52.85 252.90 55.60Q251.70 58.35 250.95 61.40Q250.00 65.40 246.25 65.40Q244.75 65.40 244.28 64.32Q243.80 63.25 243.80 60.45Q243.80 58.85 243.85 57.90L243.90 53.90Q243.90 46.20 245.48 37.85Q247.05 29.50 250.13 23.82Q253.20 18.15 257.50 18.15Q259.80 18.15 261.23 20.12Q262.65 22.10 262.65 25.25Q262.65 30.30 259.70 35.72Q256.75 41.15 250.10 48.40Q249.95 51.00 249.95 53.75Q251.60 49.50 253.63 46.82Q255.65 44.15 257.63 43.00Q259.60 41.85 261.25 41.85Q264.50 41.85 264.50 45.10Q264.50 47.05 263.40 52.15Q262.45 56.50 262.45 57.90Q262.45 59.90 263.90 59.90Q264.90 59.90 266.28 58.67Q267.65 57.45 269.95 54.70Q270.55 54.00 271.30 54.00M256.45 23.10Q255.55 23.10 254.45 25.67Q253.35 28.25 252.33 32.62Q251.30 37.00 250.65 42.15Q253.75 38.50 255.78 34.20Q257.80 29.90 257.80 26.40Q257.80 24.80 257.45 23.95Q257.10 23.10 256.45 23.10ZM285.45 65.40Q283.55 65.40 282.78 63.40Q282.00 61.40 282.00 57.00Q282.00 50.50 283.85 44.65Q284.30 43.20 285.33 42.52Q286.35 41.85 288.20 41.85Q289.20 41.85 289.60 42.10Q290.00 42.35 290.00 43.05Q290.00 43.85 289.25 46.65Q288.75 48.65 288.45 50.12Q288.15 51.60 287.95 53.80Q289.30 49.90 291.18 47.20Q293.05 44.50 295.03 43.17Q297.00 41.85 298.75 41.85Q300.50 41.85 301.23 42.65Q301.95 43.45 301.95 45.10Q301.95 46.70 301.00 50.90Q300.60 52.70 300.45 53.60Q302.95 47.45 306.00 44.65Q309.05 41.85 311.70 41.85Q314.95 41.85 314.95 45.10Q314.95 47.05 313.85 52.15Q312.90 56.50 312.90 57.90Q312.90 59.90 314.35 59.90Q315.35 59.90 316.73 58.67Q318.10 57.45 320.40 54.70Q321.00 54.00 321.75 54.00Q322.40 54.00 322.78 54.60Q323.15 55.20 323.15 56.25Q323.15 58.25 322.20 59.35Q320.05 62.00 317.58 63.70Q315.10 65.40 311.95 65.40Q309.40 65.40 308.10 63.92Q306.80 62.45 306.80 59.65Q306.80 58.25 307.50 54.65Q308.15 51.50 308.15 50.30Q308.15 49.50 307.60 49.50Q306.95 49.50 305.75 51.17Q304.55 52.85 303.35 55.60Q302.15 58.35 301.40 61.40Q300.85 63.80 300.13 64.60Q299.40 65.40 297.80 65.40Q296.15 65.40 295.33 63.82Q294.50 62.25 294.50 60.00Q294.50 58.10 295.00 54.50Q295.40 51.30 295.40 50.30Q295.40 49.50 294.85 49.50Q294.10 49.50 292.95 51.30Q291.80 53.10 290.73 55.90Q289.65 58.70 289.00 61.40Q288.45 63.75 287.73 64.57Q287.00 65.40 285.45 65.40ZM341.40 54.00Q342.05 54.00 342.43 54.60Q342.80 55.20 342.80 56.25Q342.80 58.25 341.85 59.35Q340.00 61.60 336.63 63.50Q333.25 65.40 329.40 65.40Q324.15 65.40 321.25 62.55Q318.35 59.70 318.35 54.75Q318.35 51.30 319.80 48.32Q321.25 45.35 323.83 43.60Q326.40 41.85 329.65 41.85Q332.55 41.85 334.30 43.57Q336.05 45.30 336.05 48.25Q336.05 51.70 333.58 54.17Q331.10 56.65 325.20 58.10Q326.45 60.40 329.95 60.40Q332.20 60.40 335.08 58.82Q337.95 57.25 340.05 54.70Q340.65 54.00 341.40 54.00M328.80 46.75Q326.95 46.75 325.68 48.90Q324.40 51.05 324.40 54.10L324.40 54.20Q327.35 53.50 329.05 52.10Q330.75 50.70 330.75 48.85Q330.75 47.90 330.23 47.32Q329.70 46.75 328.80 46.75Z"/></g></g></svg>