<svg xmlns="http://www.w3.org/2000/svg" viewBox="0 18.149999618530273 444.1000061035156 69.75" data-asc="1.303" width="444.1000061035156" height="69.75"><defs/><g fill="#a77bf7"><g transform="translate(0, 0)"><path d="M40.75 54.00Q41.40 54.00 41.77 54.60Q42.15 55.20 42.15 56.25Q42.15 58.20 41.20 59.35Q38.40 62.70 35.77 64.05Q33.15 65.40 29.45 65.40Q26.85 65.40 24.65 64.75Q22.45 64.10 19.30 62.80Q16.45 61.55 13.80 60.75Q11.25 65.40 6.15 65.40Q3.35 65.40 1.68 64.12Q0 62.85 0 60.85Q0 58.40 2.35 56.77Q4.70 55.15 8.60 55.15L9.25 55.15L10.15 40.60Q10.45 35.60 11.95 32.35Q13.45 29.10 16.10 26.80Q18.40 24.80 21.35 23.77Q24.30 22.75 27.60 22.75Q33 22.75 35.90 25.55Q38.80 28.35 38.80 32.85Q38.80 35.90 37.70 37.77Q36.60 39.65 34.65 39.65Q33.25 39.65 32.45 38.97Q31.65 38.30 31.65 37.05Q31.65 36.60 31.85 35.40Q32.15 34.00 32.15 32.90Q32.15 30.80 30.93 29.57Q29.70 28.35 27.20 28.35Q22.80 28.35 20.40 31.22Q18 34.10 17.35 40.25L16.20 51.60Q15.95 54.00 15.55 55.75Q18.75 56.30 23.55 57.50Q26.35 58.20 27.85 58.50Q29.35 58.80 30.50 58.80Q33.40 58.80 35.48 57.82Q37.55 56.85 39.40 54.70Q40 54.00 40.75 54.00ZM44.25 65.40Q41.15 65.40 39.30 63.15Q37.45 60.90 37.45 57.25Q37.45 53.25 39.30 49.67Q41.15 46.10 44.22 43.92Q47.30 41.75 50.75 41.75Q51.85 41.75 52.22 42.17Q52.60 42.60 52.85 43.70Q53.90 43.50 55.05 43.50Q57.50 43.50 57.50 45.25Q57.50 46.30 56.75 50.25Q55.60 56.00 55.60 58.25Q55.60 59.00 55.97 59.45Q56.35 59.90 56.95 59.90Q57.90 59.90 59.25 58.67Q60.60 57.45 62.90 54.70Q63.50 54.00 64.25 54.00Q64.90 54.00 65.28 54.60Q65.65 55.20 65.65 56.25Q65.65 58.25 64.70 59.35Q62.65 61.90 60.35 63.65Q58.05 65.40 55.90 65.40Q54.25 65.40 52.88 64.27Q51.50 63.15 50.80 61.20Q48.20 65.40 44.25 65.40M46.05 60.35Q47.15 60.35 48.15 59.05Q49.15 57.75 49.60 55.60L51.45 46.40Q49.35 46.45 47.57 47.97Q45.80 49.50 44.75 52.00Q43.70 54.50 43.70 57.30Q43.70 58.85 44.32 59.60Q44.95 60.35 46.05 60.35ZM65.15 65.40Q63.25 65.40 62.47 63.40Q61.70 61.40 61.70 57.00Q61.70 50.50 63.55 44.65Q64 43.20 65.02 42.52Q66.05 41.85 67.90 41.85Q68.90 41.85 69.30 42.10Q69.70 42.35 69.70 43.05Q69.70 43.85 68.95 46.65Q68.45 48.65 68.15 50.15Q67.85 51.65 67.65 53.85Q69.30 49.55 71.35 46.85Q73.40 44.15 75.38 43.00Q77.35 41.85 79 41.85Q82.25 41.85 82.25 45.10Q82.25 47.05 81.15 52.15Q80.20 56.50 80.20 57.90Q80.20 59.90 81.65 59.90Q82.65 59.90 84.03 58.67Q85.40 57.45 87.70 54.70Q88.30 54.00 89.05 54.00Q89.70 54.00 90.07 54.60Q90.45 55.20 90.45 56.25Q90.45 58.25 89.50 59.35Q87.35 62.00 84.88 63.70Q82.40 65.40 79.25 65.40Q76.70 65.40 75.40 63.92Q74.10 62.45 74.10 59.65Q74.10 58.25 74.80 54.65Q75.45 51.50 75.45 50.30Q75.45 49.50 74.90 49.50Q74.25 49.50 73.07 51.17Q71.90 52.85 70.67 55.60Q69.45 58.35 68.70 61.40Q68.15 63.75 67.42 64.57Q66.70 65.40 65.15 65.40ZM112 54.10Q112.65 54.10 113.03 54.72Q113.40 55.35 113.40 56.30Q113.40 57.45 113.05 58.10Q112.70 58.75 111.95 59.25Q107.65 62.15 105.65 63.55L102.45 65.70Q100.55 76.05 97.47 81.97Q94.40 87.90 89.65 87.90Q87.10 87.90 85.50 86.32Q83.90 84.75 83.90 82.20Q83.90 78.65 86.70 74.57Q89.50 70.50 97.20 64.55L97.50 62.60Q96.65 63.95 95.28 64.67Q93.90 65.40 92.55 65.40Q89.45 65.40 87.60 63.15Q85.75 60.90 85.75 57.25Q85.75 53.25 87.60 49.67Q89.45 46.10 92.53 43.92Q95.60 41.75 99.05 41.75Q100.15 41.75 100.53 42.17Q100.90 42.60 101.15 43.70Q102.10 43.50 103.35 43.50Q104.60 43.50 105.13 43.87Q105.65 44.25 105.65 45.35Q105.65 45.95 105.60 46.30Q105.40 47.85 104.35 54.15Q104.15 55.35 103.92 56.77Q103.70 58.20 103.45 59.80Q107.30 56.80 110.85 54.50Q111.50 54.10 112 54.10M94.35 60.35Q95.50 60.35 96.55 58.95Q97.60 57.55 98.05 54.95L99.65 46.40Q97.60 46.45 95.85 47.97Q94.10 49.50 93.05 52.00Q92 54.50 92 57.30Q92 58.85 92.63 59.60Q93.25 60.35 94.35 60.35M90.20 83.05Q91.45 83.05 93.03 80.05Q94.60 77.05 96.05 70.50Q92.20 73.80 90.50 76.45Q88.80 79.10 88.80 81.10Q88.80 81.95 89.13 82.50Q89.45 83.05 90.20 83.05ZM115.45 65.40Q113.20 65.40 111.78 63.32Q110.35 61.25 110.35 58.15Q110.35 54.40 110.85 51.27Q111.35 48.15 112.50 44.65Q113 43.15 113.90 42.50Q114.80 41.85 116.75 41.85Q117.85 41.85 118.28 42.20Q118.70 42.55 118.70 43.25Q118.70 43.65 118.15 45.95Q117.65 47.80 117.35 49.30Q116.35 54.55 116.35 56.30Q116.35 57.35 116.60 57.77Q116.85 58.20 117.40 58.20Q118.15 58.20 119.28 56.70Q120.40 55.20 121.68 52.15Q122.95 49.10 124.15 44.65Q124.55 43.15 125.38 42.50Q126.20 41.85 127.85 41.85Q129 41.85 129.45 42.12Q129.90 42.40 129.90 43.15Q129.90 44.40 128.65 50.00Q127.25 56.40 127.25 57.90Q127.25 58.85 127.65 59.37Q128.05 59.90 128.70 59.90Q129.70 59.90 131.07 58.67Q132.45 57.45 134.75 54.70Q135.35 54.00 136.10 54.00Q136.75 54.00 137.13 54.60Q137.50 55.20 137.50 56.25Q137.50 58.25 136.55 59.35Q134.40 62.00 131.93 63.70Q129.45 65.40 126.30 65.40Q123.90 65.40 122.78 63.55Q121.65 61.70 121.65 58.35Q120.80 61.75 119.10 63.57Q117.40 65.40 115.45 65.40ZM139.60 65.40Q136.50 65.40 134.65 63.15Q132.80 60.90 132.80 57.25Q132.80 53.25 134.65 49.67Q136.50 46.10 139.58 43.92Q142.65 41.75 146.10 41.75Q147.20 41.75 147.58 42.17Q147.95 42.60 148.20 43.70Q149.25 43.50 150.40 43.50Q152.85 43.50 152.85 45.25Q152.85 46.30 152.10 50.25Q150.95 56.00 150.95 58.25Q150.95 59.00 151.33 59.45Q151.70 59.90 152.30 59.90Q153.25 59.90 154.60 58.67Q155.95 57.45 158.25 54.70Q158.85 54.00 159.60 54.00Q160.25 54.00 160.63 54.60Q161 55.20 161 56.25Q161 58.25 160.05 59.35Q158 61.90 155.70 63.65Q153.40 65.40 151.25 65.40Q149.60 65.40 148.23 64.27Q146.85 63.15 146.15 61.20Q143.55 65.40 139.60 65.40M141.40 60.35Q142.50 60.35 143.50 59.05Q144.50 57.75 144.95 55.60L146.80 46.40Q144.70 46.45 142.93 47.97Q141.15 49.50 140.10 52.00Q139.05 54.50 139.05 57.30Q139.05 58.85 139.68 59.60Q140.30 60.35 141.40 60.35ZM182.55 54.10Q183.20 54.10 183.58 54.72Q183.95 55.35 183.95 56.30Q183.95 57.45 183.60 58.10Q183.25 58.75 182.50 59.25Q178.20 62.15 176.20 63.55L173 65.70Q171.10 76.05 168.03 81.97Q164.95 87.90 160.20 87.90Q157.65 87.90 156.05 86.32Q154.45 84.75 154.45 82.20Q154.45 78.65 157.25 74.57Q160.05 70.50 167.75 64.55L168.05 62.60Q167.20 63.95 165.83 64.67Q164.45 65.40 163.10 65.40Q160 65.40 158.15 63.15Q156.30 60.90 156.30 57.25Q156.30 53.25 158.15 49.67Q160 46.10 163.08 43.92Q166.15 41.75 169.60 41.75Q170.70 41.75 171.08 42.17Q171.45 42.60 171.70 43.70Q172.65 43.50 173.90 43.50Q175.15 43.50 175.68 43.87Q176.20 44.25 176.20 45.35Q176.20 45.95 176.15 46.30Q175.95 47.85 174.90 54.15Q174.70 55.35 174.48 56.77Q174.25 58.20 174 59.80Q177.85 56.80 181.40 54.50Q182.05 54.10 182.55 54.10M164.90 60.35Q166.05 60.35 167.10 58.95Q168.15 57.55 168.60 54.95L170.20 46.40Q168.15 46.45 166.40 47.97Q164.65 49.50 163.60 52.00Q162.55 54.50 162.55 57.30Q162.55 58.85 163.18 59.60Q163.80 60.35 164.90 60.35M160.75 83.05Q162 83.05 163.58 80.05Q165.15 77.05 166.60 70.50Q162.75 73.80 161.05 76.45Q159.35 79.10 159.35 81.10Q159.35 81.95 159.68 82.50Q160 83.05 160.75 83.05ZM203.20 54.00Q203.85 54.00 204.22 54.60Q204.60 55.20 204.60 56.25Q204.60 58.25 203.65 59.35Q201.80 61.60 198.43 63.50Q195.05 65.40 191.20 65.40Q185.95 65.40 183.05 62.55Q180.15 59.70 180.15 54.75Q180.15 51.30 181.60 48.32Q183.05 45.35 185.63 43.60Q188.20 41.85 191.45 41.85Q194.35 41.85 196.10 43.57Q197.85 45.30 197.85 48.25Q197.85 51.70 195.38 54.17Q192.90 56.65 187 58.10Q188.25 60.40 191.75 60.40Q194 60.40 196.88 58.82Q199.75 57.25 201.85 54.70Q202.45 54.00 203.20 54.00M190.60 46.75Q188.75 46.75 187.47 48.90Q186.20 51.05 186.20 54.10L186.20 54.20Q189.15 53.50 190.85 52.10Q192.55 50.70 192.55 48.85Q192.55 47.90 192.03 47.32Q191.50 46.75 190.60 46.75ZM209.85 66.50Q207.25 66.50 205.88 65.30Q204.50 64.10 204.50 62.60Q204.50 61.30 205.45 60.35Q206.40 59.40 208.25 59.40Q208.90 59.40 209.78 59.52Q210.65 59.65 211.10 59.70Q211.05 58.40 210.53 57.25Q210 56.10 209.20 55.02Q208.40 53.95 207.70 53.15Q206.15 56.10 204.63 58.05Q203.10 60.00 201.30 61.75Q200.40 62.65 199.40 62.65Q198.60 62.65 198.10 62.07Q197.60 61.50 197.60 60.65Q197.60 59.65 198.30 58.80L198.95 58.00Q201.70 54.60 203.10 52.40Q203.95 50.95 205.10 48.52Q206.25 46.10 207.35 43.50Q208.30 41.30 211.30 41.30Q212.70 41.30 213.25 41.55Q213.80 41.80 213.80 42.35Q213.80 42.65 213.60 43.30Q213.40 43.95 213.05 44.60Q212.15 46.40 212.15 47.65Q212.15 48.40 212.68 49.30Q213.20 50.20 214.30 51.55Q215.90 53.65 216.72 55.12Q217.55 56.60 217.55 58.35Q217.55 58.85 217.45 59.75Q219.90 58.80 223.20 54.70Q223.80 54.00 224.55 54.00Q225.20 54.00 225.58 54.60Q225.95 55.20 225.95 56.25Q225.95 58.15 225 59.35Q222.50 62.45 220.23 63.57Q217.95 64.70 214.60 64.80Q212.60 66.50 209.85 66.50ZM241.30 65.40Q238.20 65.40 236.35 63.15Q234.50 60.90 234.50 57.25Q234.50 53.25 236.35 49.67Q238.20 46.10 241.28 43.92Q244.35 41.75 247.80 41.75Q248.90 41.75 249.28 42.17Q249.65 42.60 249.90 43.70Q250.95 43.50 252.10 43.50Q254.55 43.50 254.55 45.25Q254.55 46.30 253.80 50.25Q252.65 56.00 252.65 58.25Q252.65 59.00 253.03 59.45Q253.40 59.90 254 59.90Q254.95 59.90 256.30 58.67Q257.65 57.45 259.95 54.70Q260.55 54.00 261.30 54.00Q261.95 54.00 262.32 54.60Q262.70 55.20 262.70 56.25Q262.70 58.25 261.75 59.35Q259.70 61.90 257.40 63.65Q255.10 65.40 252.95 65.40Q251.30 65.40 249.93 64.27Q248.55 63.15 247.85 61.20Q245.25 65.40 241.30 65.40M243.10 60.35Q244.20 60.35 245.20 59.05Q246.20 57.75 246.65 55.60L248.50 46.40Q246.40 46.45 244.63 47.97Q242.85 49.50 241.80 52.00Q240.75 54.50 240.75 57.30Q240.75 58.85 241.38 59.60Q242 60.35 243.10 60.35ZM262.20 65.40Q260.30 65.40 259.52 63.40Q258.75 61.40 258.75 57.00Q258.75 50.50 260.60 44.65Q261.05 43.20 262.07 42.52Q263.10 41.85 264.95 41.85Q265.95 41.85 266.35 42.10Q266.75 42.35 266.75 43.05Q266.75 43.85 266 46.65Q265.50 48.65 265.20 50.15Q264.90 51.65 264.70 53.85Q266.35 49.55 268.40 46.85Q270.45 44.15 272.43 43.00Q274.40 41.85 276.05 41.85Q279.30 41.85 279.30 45.10Q279.30 47.05 278.20 52.15Q277.25 56.50 277.25 57.90Q277.25 59.90 278.70 59.90Q279.70 59.90 281.07 58.67Q282.45 57.45 284.75 54.70Q285.35 54.00 286.10 54.00Q286.75 54.00 287.13 54.60Q287.50 55.20 287.50 56.25Q287.50 58.25 286.55 59.35Q284.40 62.00 281.93 63.70Q279.45 65.40 276.30 65.40Q273.75 65.40 272.45 63.92Q271.15 62.45 271.15 59.65Q271.15 58.25 271.85 54.65Q272.50 51.50 272.50 50.30Q272.50 49.50 271.95 49.50Q271.30 49.50 270.13 51.17Q268.95 52.85 267.73 55.60Q266.50 58.35 265.75 61.40Q265.20 63.75 264.48 64.57Q263.75 65.40 262.20 65.40ZM311.85 54.00Q312.50 54.00 312.88 54.60Q313.25 55.20 313.25 56.25Q313.25 58.25 312.30 59.35Q310.25 61.85 307.80 63.62Q305.35 65.40 302.95 65.40Q299.15 65.40 297.15 60.95Q295.05 63.60 293.48 64.50Q291.90 65.40 289.80 65.40Q286.75 65.40 284.78 63.12Q282.80 60.85 282.80 57.20Q282.80 53.20 284.50 49.77Q286.20 46.35 289.18 44.17Q292.15 42.00 295.85 41.60Q296.80 31.90 299.48 25.02Q302.15 18.15 306.50 18.15Q308.65 18.15 310.07 20.10Q311.50 22.05 311.50 26.00Q311.50 31.60 308.75 39.10Q306 46.60 301.40 54.50Q301.60 57.40 302.28 58.65Q302.95 59.90 304 59.90Q305.35 59.90 306.75 58.70Q308.15 57.50 310.50 54.70Q311.10 54.00 311.85 54.00M305.95 23.05Q305 23.05 304.05 26.42Q303.10 29.80 302.43 35.25Q301.75 40.70 301.45 46.65Q307.05 34.45 307.05 27.05Q307.05 25.15 306.73 24.10Q306.40 23.05 305.95 23.05M291.55 60.35Q292.50 60.35 293.45 59.57Q294.40 58.80 295.85 56.70Q295.35 54.00 295.35 50.65Q295.35 49.45 295.45 46.75Q292.70 47.60 290.88 50.42Q289.05 53.25 289.05 56.70Q289.05 60.35 291.55 60.35ZM362.10 23.65Q363.65 23.95 364.43 24.70Q365.20 25.45 365.20 26.45Q365.20 28.10 364.28 28.85Q363.35 29.60 361.35 29.45Q356.85 29.10 354.32 28.97Q351.80 28.85 347.70 28.80Q345.85 38.00 344.30 47.30Q343.75 50.70 343.15 55.17Q342.55 59.65 342.35 62.40Q342.25 63.85 341.15 64.62Q340.05 65.40 338.50 65.40Q336.85 65.40 335.95 64.60Q335.05 63.80 335.05 62.50Q335.05 61.30 335.43 58.52Q335.80 55.75 336.30 52.70Q336.85 49.65 337.15 47.40Q337.70 43.60 338.40 39.85Q339.10 36.10 339.80 32.75Q339.95 32.00 340.15 31.02Q340.35 30.05 340.60 28.85Q335.70 29.00 332.90 29.65Q330.10 30.30 328.93 31.47Q327.75 32.65 327.75 34.50Q327.75 36.20 328.75 37.75Q328.95 38.10 328.95 38.50Q328.95 39.45 327.82 40.27Q326.70 41.10 325.50 41.10Q324.65 41.10 324.10 40.60Q323.10 39.75 322.45 38.17Q321.80 36.60 321.80 34.60Q321.80 30.35 324.57 27.77Q327.35 25.20 333.03 24.00Q338.70 22.80 347.60 22.80Q353.10 22.80 356.38 23.00Q359.65 23.20 362.10 23.65ZM382.80 49.80Q383.45 49.80 383.80 50.45Q384.15 51.10 384.15 52.10Q384.15 54.50 382.70 54.95Q379.70 56.00 376.10 56.15Q375.15 60.35 372.35 62.87Q369.55 65.40 366.00 65.40Q363.00 65.40 360.88 63.95Q358.75 62.50 357.65 60.10Q356.55 57.70 356.55 54.90Q356.55 51.10 358.00 48.12Q359.45 45.15 362.00 43.47Q364.55 41.80 367.65 41.80Q371.45 41.80 373.78 44.42Q376.10 47.05 376.50 50.90Q378.85 50.75 382.10 49.90Q382.50 49.80 382.80 49.80M366.40 60.10Q368.00 60.10 369.18 58.80Q370.35 57.50 370.75 55.05Q369.20 54.00 368.38 52.30Q367.55 50.60 367.55 48.70Q367.55 47.90 367.70 47.10L367.45 47.10Q365.45 47.10 364.13 49.02Q362.80 50.95 362.80 54.45Q362.80 57.20 363.88 58.65Q364.95 60.10 366.40 60.10ZM405.35 49.80Q406.00 49.80 406.35 50.45Q406.70 51.10 406.70 52.10Q406.70 54.50 405.25 54.95Q402.25 56.00 398.65 56.15Q397.70 60.35 394.90 62.87Q392.10 65.40 388.55 65.40Q385.55 65.40 383.43 63.95Q381.30 62.50 380.20 60.10Q379.10 57.70 379.10 54.90Q379.10 51.10 380.55 48.12Q382.00 45.15 384.55 43.47Q387.10 41.80 390.20 41.80Q394.00 41.80 396.33 44.42Q398.65 47.05 399.05 50.90Q401.40 50.75 404.65 49.90Q405.05 49.80 405.35 49.80M388.95 60.10Q390.55 60.10 391.73 58.80Q392.90 57.50 393.30 55.05Q391.75 54.00 390.93 52.30Q390.10 50.60 390.10 48.70Q390.10 47.90 390.25 47.10L390.00 47.10Q388.00 47.10 386.68 49.02Q385.35 50.95 385.35 54.45Q385.35 57.20 386.43 58.65Q387.50 60.10 388.95 60.10ZM421.35 54.00Q422.00 54.00 422.38 54.60Q422.75 55.20 422.75 56.25Q422.75 58.25 421.80 59.35Q419.65 62.00 417.13 63.70Q414.60 65.40 411.40 65.40Q407.00 65.40 404.88 61.40Q402.75 57.40 402.75 51.05Q402.75 44.95 404.33 37.15Q405.90 29.35 408.98 23.75Q412.05 18.15 416.30 18.15Q418.70 18.15 420.08 20.37Q421.45 22.60 421.45 26.75Q421.45 32.70 418.15 40.55Q414.85 48.40 409.20 56.10Q409.55 58.15 410.35 59.02Q411.15 59.90 412.45 59.90Q414.50 59.90 416.05 58.72Q417.60 57.55 420.00 54.70Q420.60 54.00 421.35 54.00M415.20 23.10Q414.05 23.10 412.60 27.25Q411.15 31.40 410.05 37.55Q408.95 43.70 408.85 49.35Q412.40 43.50 414.50 37.62Q416.60 31.75 416.60 26.90Q416.60 23.10 415.20 23.10ZM428.00 66.50Q425.40 66.50 424.03 65.30Q422.65 64.10 422.65 62.60Q422.65 61.30 423.60 60.35Q424.55 59.40 426.40 59.40Q427.05 59.40 427.93 59.52Q428.80 59.65 429.25 59.70Q429.20 58.40 428.68 57.25Q428.15 56.10 427.35 55.02Q426.55 53.95 425.85 53.15Q424.30 56.10 422.78 58.05Q421.25 60.00 419.45 61.75Q418.55 62.65 417.55 62.65Q416.75 62.65 416.25 62.07Q415.75 61.50 415.75 60.65Q415.75 59.65 416.45 58.80L417.10 58.00Q419.85 54.60 421.25 52.40Q422.10 50.95 423.25 48.52Q424.40 46.10 425.50 43.50Q426.45 41.30 429.45 41.30Q430.85 41.30 431.40 41.55Q431.95 41.80 431.95 42.35Q431.95 42.65 431.75 43.30Q431.55 43.95 431.20 44.60Q430.30 46.40 430.30 47.65Q430.30 48.40 430.83 49.30Q431.35 50.20 432.45 51.55Q434.05 53.65 434.88 55.12Q435.70 56.60 435.70 58.35Q435.70 58.85 435.60 59.75Q438.05 58.80 441.35 54.70Q441.95 54.00 442.70 54.00Q443.35 54.00 443.73 54.60Q444.10 55.20 444.10 56.25Q444.10 58.15 443.15 59.35Q440.65 62.45 438.38 63.57Q436.10 64.70 432.75 64.80Q430.75 66.50 428.00 66.50Z"/></g></g></svg>