<svg xmlns="http://www.w3.org/2000/svg" viewBox="0 17.450000762939453 391.5 70.45000457763672" data-asc="1.303" width="391.5" height="70.45000457763672"><defs/><g fill="#a77bf7"><g transform="translate(0, 0)"><path d="M11.65 65.40Q9.80 65.40 9.00 64.57Q8.20 63.75 8.20 61.45Q8.20 59.90 8.53 57.47Q8.85 55.05 9.60 50.80Q10.90 42.95 11.65 37.20Q12.10 33.60 12.10 31.20Q12.10 28.95 10.45 28.95Q9.15 28.95 7.33 30.27Q5.50 31.60 3.30 34.50Q2.60 35.45 1.75 35.45Q1.05 35.45 0.53 34.77Q0 34.10 0 33.25Q0 32.45 0.33 31.62Q0.65 30.80 1.40 29.75Q3.80 26.40 6.75 24.57Q9.70 22.75 12.65 22.75Q15.40 22.75 16.88 24.50Q18.35 26.25 18.35 29.60Q18.35 30.95 18.10 32.77Q17.85 34.60 17.65 35.75Q17.45 36.90 17.35 37.35Q20.20 29.20 23.75 25.97Q27.30 22.75 31.55 22.75Q34.80 22.75 36.67 25.05Q38.55 27.35 38.55 31.55Q38.55 33.20 38.10 35.65Q40.60 28.75 43.95 25.75Q47.30 22.75 51.65 22.75Q55.15 22.75 57.02 25.00Q58.90 27.25 58.90 31.30Q58.90 33.50 58.25 36.65L55.20 50.95Q54.70 53.45 54.70 55.25Q54.70 57.35 55.67 58.40Q56.65 59.45 58.40 59.45Q60.05 59.45 61.63 58.35Q63.20 57.25 65.35 54.70Q65.95 54.00 66.70 54.00Q67.35 54.00 67.72 54.60Q68.10 55.20 68.10 56.25Q68.10 58.20 67.15 59.35Q64.55 62.50 62 63.95Q59.45 65.40 56.65 65.40Q52.40 65.40 50 62.87Q47.60 60.35 47.60 56.10Q47.60 53.15 48.80 47.55L50.80 38.40Q50.90 37.95 51.15 36.80Q51.40 35.65 51.55 34.62Q51.70 33.60 51.70 32.60Q51.70 30.85 51.02 29.97Q50.35 29.10 49.10 29.10Q46.75 29.10 44.17 32.12Q41.60 35.15 39.27 42.15Q36.95 49.15 35.50 60.35Q35.15 63.35 34.27 64.37Q33.40 65.40 31.45 65.40Q29.75 65.40 28.98 64.60Q28.20 63.80 28.20 61.60Q28.20 59.55 28.75 56.22Q29.30 52.90 30.15 48.40Q32.45 36.30 32.45 32.80Q32.45 30.90 31.73 30.00Q31.00 29.10 29.55 29.10Q27.10 29.10 24.50 31.87Q21.90 34.65 19.43 41.72Q16.95 48.80 15.30 60.85Q14.95 63.40 14.28 64.40Q13.60 65.40 11.65 65.40ZM89.65 54.10Q90.30 54.10 90.67 54.72Q91.05 55.35 91.05 56.30Q91.05 57.45 90.70 58.10Q90.35 58.75 89.60 59.25L80 65.70Q78.10 76.05 75.03 81.97Q71.95 87.90 67.20 87.90Q64.65 87.90 63.05 86.32Q61.45 84.75 61.45 82.20Q61.45 79.85 62.52 77.40Q63.60 74.95 66.53 71.77Q69.45 68.60 74.80 64.50L74.95 63.35Q75.30 61.50 75.75 58.05Q74.75 61.65 72.95 63.52Q71.15 65.40 69.15 65.40Q66.90 65.40 65.47 63.32Q64.05 61.25 64.05 58.15Q64.05 54.40 64.55 51.27Q65.05 48.15 66.20 44.65Q66.70 43.15 67.60 42.50Q68.50 41.85 70.45 41.85Q71.55 41.85 71.97 42.20Q72.40 42.55 72.40 43.25Q72.40 43.65 71.85 45.95Q71.35 47.80 71.05 49.30Q70.65 51.35 70.35 53.22Q70.05 55.10 70.05 56.30Q70.05 58.20 71.10 58.20Q71.85 58.20 72.97 56.70Q74.10 55.20 75.38 52.15Q76.65 49.10 77.85 44.65Q78.25 43.15 79.08 42.50Q79.90 41.85 81.55 41.85Q82.70 41.85 83.15 42.15Q83.60 42.45 83.60 43.15Q83.60 44.40 82.30 51.75L81 59.80Q84.85 56.90 88.50 54.50Q89.15 54.10 89.65 54.10M67.75 83.05Q69 83.05 70.55 80.15Q72.10 77.25 73.65 70.50Q69.80 73.75 68.08 76.42Q66.35 79.10 66.35 81.10Q66.35 81.95 66.67 82.50Q67 83.05 67.75 83.05ZM164.75 43.55Q165.90 43.55 166.43 44.05Q166.95 44.55 166.95 45.35Q166.95 46.65 166.18 47.65Q165.40 48.65 163.75 48.70Q159.80 48.75 156.65 48.10Q153.15 55.55 148.22 60.47Q143.30 65.40 138.50 65.40Q134.10 65.40 131.90 60.72Q129.70 56.05 129.40 48.20Q126.40 56.90 122.63 61.15Q118.85 65.40 114.60 65.40Q109.80 65.40 107.35 59.42Q104.90 53.45 104.90 43.35Q104.90 36.00 106.20 27.20Q106.55 24.70 107.47 23.72Q108.40 22.75 110.40 22.75Q111.90 22.75 112.72 23.40Q113.55 24.05 113.55 25.80Q113.55 26.15 113.45 27.15Q111.95 37.40 111.95 44.60Q111.95 51.30 113.10 54.95Q114.25 58.60 116.20 58.60Q117.95 58.60 120.42 54.92Q122.90 51.25 125.35 44.02Q127.80 36.80 129.50 26.80Q129.90 24.50 130.97 23.62Q132.05 22.75 133.90 22.75Q135.45 22.75 136.18 23.42Q136.90 24.10 136.90 25.45Q136.90 26.25 136.80 26.70Q135.40 34.85 135.40 43.00Q135.40 48.55 135.78 51.85Q136.15 55.15 137.22 56.87Q138.30 58.60 140.35 58.60Q142.75 58.60 145.70 54.97Q148.65 51.35 151.10 45.95Q148.05 44.05 146.50 41.02Q144.95 38.00 144.95 34.05Q144.95 30.10 146.18 27.37Q147.40 24.65 149.53 23.30Q151.65 21.95 154.25 21.95Q157.45 21.95 159.32 24.25Q161.20 26.55 161.20 30.55Q161.20 36.20 158.75 43.10Q161.30 43.55 164.75 43.55M150 33.70Q150 38.60 153.15 40.95Q155.10 35.35 155.10 31.70Q155.10 29.60 154.55 28.62Q154 27.65 153.05 27.65Q151.70 27.65 150.85 29.22Q150 30.80 150 33.70ZM187.60 49.80Q188.25 49.80 188.60 50.45Q188.95 51.10 188.95 52.10Q188.95 54.50 187.50 54.95Q184.50 56.00 180.90 56.15Q179.95 60.35 177.15 62.87Q174.35 65.40 170.80 65.40Q167.80 65.40 165.67 63.95Q163.55 62.50 162.45 60.10Q161.35 57.70 161.35 54.90Q161.35 51.10 162.80 48.12Q164.25 45.15 166.80 43.47Q169.35 41.80 172.45 41.80Q176.25 41.80 178.57 44.42Q180.90 47.05 181.30 50.90Q183.65 50.75 186.90 49.90Q187.30 49.80 187.60 49.80M171.20 60.10Q172.80 60.10 173.97 58.80Q175.15 57.50 175.55 55.05Q174 54.00 173.17 52.30Q172.35 50.60 172.35 48.70Q172.35 47.90 172.50 47.10L172.25 47.10Q170.25 47.10 168.92 49.02Q167.60 50.95 167.60 54.45Q167.60 57.20 168.67 58.65Q169.75 60.10 171.20 60.10ZM188.20 65.40Q186.30 65.40 185.53 63.40Q184.75 61.40 184.75 57.00Q184.75 50.50 186.60 44.65Q187.05 43.20 188.07 42.52Q189.10 41.85 190.95 41.85Q191.95 41.85 192.35 42.10Q192.75 42.35 192.75 43.05Q192.75 43.85 192 46.65Q191.50 48.65 191.20 50.15Q190.90 51.65 190.70 53.85Q192.35 49.55 194.40 46.85Q196.45 44.15 198.43 43.00Q200.40 41.85 202.05 41.85Q205.30 41.85 205.30 45.10Q205.30 45.75 204.85 48.25Q204.45 50.25 204.45 50.75Q204.45 52.50 205.70 52.50Q207.10 52.50 209.30 50.30Q209.95 49.65 210.65 49.65Q211.30 49.65 211.68 50.22Q212.05 50.80 212.05 51.75Q212.05 53.60 211.05 54.65Q209.65 56.10 207.78 57.12Q205.90 58.15 203.80 58.15Q201.15 58.15 199.78 56.80Q198.40 55.45 198.40 53.15Q198.40 52.40 198.55 51.65Q198.65 50.65 198.65 50.30Q198.65 49.50 198.10 49.50Q197.35 49.50 196.13 51.17Q194.90 52.85 193.70 55.60Q192.50 58.35 191.75 61.40Q191.20 63.75 190.47 64.57Q189.75 65.40 188.20 65.40ZM236.30 54.00Q236.95 54.00 237.32 54.60Q237.70 55.20 237.70 56.25Q237.70 58.25 236.75 59.35Q234.50 62.10 232.20 63.75Q229.90 65.40 226.75 65.40Q222.90 65.40 220.55 63.20Q218.20 61.00 218.20 57.35Q218.20 55.40 220.20 54.55Q222.40 53.60 223.35 52.52Q224.30 51.45 224.30 49.90Q224.30 49.00 223.93 48.55Q223.55 48.10 223 48.10Q221.65 48.10 220.03 50.05Q218.40 52.00 217 55.07Q215.60 58.15 214.80 61.40Q214.25 63.75 213.53 64.57Q212.80 65.40 211.25 65.40Q209.70 65.40 208.97 64.27Q208.25 63.15 208 60.80Q207.75 58.45 207.75 53.90Q207.75 46.20 209.32 37.85Q210.90 29.50 213.97 23.82Q217.05 18.15 221.35 18.15Q223.65 18.15 225.07 20.12Q226.50 22.10 226.50 25.25Q226.50 30.30 223.55 35.72Q220.60 41.15 213.95 48.40Q213.80 51.00 213.80 53.75Q216.20 47.50 219.30 44.67Q222.40 41.85 225.10 41.85Q227.60 41.85 229.13 43.55Q230.65 45.25 230.65 47.75Q230.65 50.50 229.25 52.80Q227.85 55.10 224.45 56.90Q224.65 58.25 225.68 59.07Q226.70 59.90 228.15 59.90Q229.70 59.90 231.15 58.70Q232.60 57.50 234.95 54.70Q235.55 54.00 236.30 54.00M220.30 23.10Q219.40 23.10 218.30 25.67Q217.20 28.25 216.18 32.62Q215.15 37.00 214.50 42.15Q217.60 38.50 219.63 34.20Q221.65 29.90 221.65 26.40Q221.65 24.80 221.30 23.95Q220.95 23.10 220.30 23.10ZM260.90 71.80Q255.15 71.80 252.10 67.95Q249.05 64.10 249.05 56.75Q249.05 51.25 250.15 45.25Q251.25 39.25 253.38 33.82Q255.50 28.40 258.40 24.70Q264.10 17.45 272.25 17.45Q274.60 17.45 276.85 18.22Q279.10 19.00 280.60 20.40Q281.45 21.20 281.45 22.45Q281.45 23.70 280.57 24.80Q279.70 25.90 278.65 25.90Q278.15 25.90 277.50 25.50Q274.25 23.25 271.55 23.25Q269.50 23.25 267.65 24.35Q265.80 25.45 264.25 27.40Q261.60 30.75 259.70 35.72Q257.80 40.70 256.80 46.12Q255.80 51.55 255.80 56.25Q255.80 59.95 256.32 62.07Q256.85 64.20 258 65.10Q259.15 66.00 261.05 66.00Q264.65 66.00 268.80 61.85Q269.60 61.05 270.45 61.05Q271.40 61.05 272.07 61.90Q272.75 62.75 272.75 63.90Q272.75 65.30 271.75 66.45Q269.60 68.85 266.65 70.32Q263.70 71.80 260.90 71.80ZM313.85 54.00Q314.50 54.00 314.88 54.60Q315.25 55.20 315.25 56.25Q315.25 58.20 314.30 59.35Q311.50 62.70 308.88 64.05Q306.25 65.40 302.55 65.40Q299.95 65.40 297.75 64.75Q295.55 64.10 292.40 62.80Q289.55 61.55 286.90 60.75Q284.35 65.40 279.25 65.40Q276.45 65.40 274.77 64.12Q273.10 62.85 273.10 60.85Q273.10 58.40 275.45 56.77Q277.80 55.15 281.70 55.15L282.35 55.15L283.25 40.60Q283.55 35.60 285.05 32.35Q286.55 29.10 289.20 26.80Q291.50 24.80 294.45 23.77Q297.40 22.75 300.70 22.75Q306.10 22.75 309 25.55Q311.90 28.35 311.90 32.85Q311.90 35.90 310.80 37.77Q309.70 39.65 307.75 39.65Q306.35 39.65 305.55 38.97Q304.75 38.30 304.75 37.05Q304.75 36.60 304.95 35.40Q305.25 34.00 305.25 32.90Q305.25 30.80 304.02 29.57Q302.80 28.35 300.30 28.35Q295.90 28.35 293.50 31.22Q291.10 34.10 290.45 40.25L289.30 51.60Q289.05 54.00 288.65 55.75Q291.85 56.30 296.65 57.50Q299.45 58.20 300.95 58.50Q302.45 58.80 303.60 58.80Q306.50 58.80 308.57 57.82Q310.65 56.85 312.50 54.70Q313.10 54.00 313.85 54.00ZM317.75 38.55Q315.65 38.55 314.60 37.57Q313.55 36.60 313.55 34.85Q313.55 33.10 314.92 31.92Q316.30 30.75 318.35 30.75Q320.20 30.75 321.35 31.65Q322.50 32.55 322.50 34.20Q322.50 36.20 321.20 37.37Q319.90 38.55 317.75 38.55M317.35 65.40Q314.10 65.40 312.62 63.10Q311.15 60.80 311.15 57.00Q311.15 54.75 311.72 51.22Q312.30 47.70 313.20 44.65Q313.65 43.05 314.40 42.45Q315.15 41.85 316.80 41.85Q319.35 41.85 319.35 43.55Q319.35 44.80 318.40 49.35Q317.20 54.85 317.20 56.80Q317.20 58.30 317.60 59.10Q318.00 59.90 318.95 59.90Q319.85 59.90 321.20 58.65Q322.55 57.40 324.80 54.70Q325.40 54.00 326.15 54.00Q326.80 54.00 327.17 54.60Q327.55 55.20 327.55 56.25Q327.55 58.25 326.60 59.35Q321.65 65.40 317.35 65.40ZM348.25 49.95Q348.40 49.90 348.75 49.90Q349.50 49.90 349.90 50.40Q350.30 50.90 350.30 51.75Q350.30 53.30 349.70 54.17Q349.10 55.05 347.90 55.45Q345.60 56.20 343.00 56.20Q340.80 56.20 338.85 55.60Q337.40 57.95 335.65 60.45Q333.65 63.30 332.20 64.35Q330.75 65.40 328.90 65.40Q326.85 65.40 325.67 63.80Q324.50 62.20 324.20 58.75Q323.60 51.75 323.60 46.50L323.60 44.75Q323.65 43.10 324.50 42.45Q325.35 41.80 327.05 41.80Q328.35 41.80 328.97 42.37Q329.60 42.95 329.60 44.30Q329.60 50.05 330.30 59.25Q333.30 54.80 334.80 52.15Q334.05 50.70 334.05 48.70Q334.05 47.00 334.80 45.40Q335.55 43.80 336.85 42.80Q338.15 41.80 339.80 41.80Q341.25 41.80 342.15 42.82Q343.05 43.85 343.05 45.80Q343.05 48.05 341.85 50.95Q343.75 50.85 346.90 50.20L348.25 49.95ZM368.25 54.00Q368.90 54.00 369.27 54.60Q369.65 55.20 369.65 56.25Q369.65 58.25 368.70 59.35Q366.85 61.60 363.47 63.50Q360.10 65.40 356.25 65.40Q351.00 65.40 348.10 62.55Q345.20 59.70 345.20 54.75Q345.20 51.30 346.65 48.32Q348.10 45.35 350.67 43.60Q353.25 41.85 356.50 41.85Q359.40 41.85 361.15 43.57Q362.90 45.30 362.90 48.25Q362.90 51.70 360.42 54.17Q357.95 56.65 352.05 58.10Q353.30 60.40 356.80 60.40Q359.05 60.40 361.92 58.82Q364.80 57.25 366.90 54.70Q367.50 54.00 368.25 54.00M355.65 46.75Q353.80 46.75 352.52 48.90Q351.25 51.05 351.25 54.10L351.25 54.20Q354.20 53.50 355.90 52.10Q357.60 50.70 357.60 48.85Q357.60 47.90 357.07 47.32Q356.55 46.75 355.65 46.75ZM368.30 71.80Q365.95 71.80 363.70 71.02Q361.45 70.25 359.95 68.85Q359.10 68.05 359.10 66.80Q359.10 65.55 359.97 64.45Q360.85 63.35 361.90 63.35Q362.40 63.35 363.05 63.75Q366.30 66.00 369.00 66.00Q371.05 66.00 372.90 64.90Q374.75 63.80 376.30 61.85Q378.95 58.50 380.85 53.52Q382.75 48.55 383.75 43.12Q384.75 37.70 384.75 33.00Q384.75 29.30 384.22 27.17Q383.70 25.05 382.55 24.15Q381.40 23.25 379.50 23.25Q375.90 23.25 371.75 27.40Q370.95 28.20 370.10 28.20Q369.15 28.20 368.47 27.35Q367.80 26.50 367.80 25.35Q367.80 23.95 368.80 22.80Q370.95 20.40 373.90 18.92Q376.85 17.45 379.65 17.45Q385.40 17.45 388.45 21.30Q391.50 25.15 391.50 32.50Q391.50 38.00 390.40 44.00Q389.30 50.00 387.17 55.42Q385.05 60.85 382.15 64.55Q376.45 71.80 368.30 71.80Z"/></g></g></svg>