<svg xmlns="http://www.w3.org/2000/svg" viewBox="0 17.450000762939453 560.8499755859375 70.45000457763672" data-asc="1.303" width="560.8499755859375" height="70.45000457763672"><defs/><g fill="#a77bf7"><g transform="translate(0, 0)"><path d="M11.65 65.40Q9.80 65.40 9.00 64.57Q8.20 63.75 8.20 61.45Q8.20 59.90 8.53 57.47Q8.85 55.05 9.60 50.80Q10.90 42.95 11.65 37.20Q12.10 33.60 12.10 31.20Q12.10 28.95 10.45 28.95Q9.15 28.95 7.33 30.27Q5.50 31.60 3.30 34.50Q2.60 35.45 1.75 35.45Q1.05 35.45 0.53 34.77Q0 34.10 0 33.25Q0 32.45 0.33 31.62Q0.65 30.80 1.40 29.75Q3.80 26.40 6.75 24.57Q9.70 22.75 12.65 22.75Q15.40 22.75 16.88 24.50Q18.35 26.25 18.35 29.60Q18.35 30.95 18.10 32.77Q17.85 34.60 17.65 35.75Q17.45 36.90 17.35 37.35Q20.20 29.20 23.75 25.97Q27.30 22.75 31.55 22.75Q34.80 22.75 36.67 25.05Q38.55 27.35 38.55 31.55Q38.55 33.20 38.10 35.65Q40.60 28.75 43.95 25.75Q47.30 22.75 51.65 22.75Q55.15 22.75 57.02 25.00Q58.90 27.25 58.90 31.30Q58.90 33.50 58.25 36.65L55.20 50.95Q54.70 53.45 54.70 55.25Q54.70 57.35 55.67 58.40Q56.65 59.45 58.40 59.45Q60.05 59.45 61.63 58.35Q63.20 57.25 65.35 54.70Q65.95 54.00 66.70 54.00Q67.35 54.00 67.72 54.60Q68.10 55.20 68.10 56.25Q68.10 58.20 67.15 59.35Q64.55 62.50 62 63.95Q59.45 65.40 56.65 65.40Q52.40 65.40 50 62.87Q47.60 60.35 47.60 56.10Q47.60 53.15 48.80 47.55L50.80 38.40Q50.90 37.95 51.15 36.80Q51.40 35.65 51.55 34.62Q51.70 33.60 51.70 32.60Q51.70 30.85 51.02 29.97Q50.35 29.10 49.10 29.10Q46.75 29.10 44.17 32.12Q41.60 35.15 39.27 42.15Q36.95 49.15 35.50 60.35Q35.15 63.35 34.27 64.37Q33.40 65.40 31.45 65.40Q29.75 65.40 28.98 64.60Q28.20 63.80 28.20 61.60Q28.20 59.55 28.75 56.22Q29.30 52.90 30.15 48.40Q32.45 36.30 32.45 32.80Q32.45 30.90 31.73 30.00Q31.00 29.10 29.55 29.10Q27.10 29.10 24.50 31.87Q21.90 34.65 19.43 41.72Q16.95 48.80 15.30 60.85Q14.95 63.40 14.28 64.40Q13.60 65.40 11.65 65.40ZM89.65 54.10Q90.30 54.10 90.67 54.72Q91.05 55.35 91.05 56.30Q91.05 57.45 90.70 58.10Q90.35 58.75 89.60 59.25L80 65.70Q78.10 76.05 75.03 81.97Q71.95 87.90 67.20 87.90Q64.65 87.90 63.05 86.32Q61.45 84.75 61.45 82.20Q61.45 79.85 62.52 77.40Q63.60 74.95 66.53 71.77Q69.45 68.60 74.80 64.50L74.95 63.35Q75.30 61.50 75.75 58.05Q74.75 61.65 72.95 63.52Q71.15 65.40 69.15 65.40Q66.90 65.40 65.47 63.32Q64.05 61.25 64.05 58.15Q64.05 54.40 64.55 51.27Q65.05 48.15 66.20 44.65Q66.70 43.15 67.60 42.50Q68.50 41.85 70.45 41.85Q71.55 41.85 71.97 42.20Q72.40 42.55 72.40 43.25Q72.40 43.65 71.85 45.95Q71.35 47.80 71.05 49.30Q70.65 51.35 70.35 53.22Q70.05 55.10 70.05 56.30Q70.05 58.20 71.10 58.20Q71.85 58.20 72.97 56.70Q74.10 55.20 75.38 52.15Q76.65 49.10 77.85 44.65Q78.25 43.15 79.08 42.50Q79.90 41.85 81.55 41.85Q82.70 41.85 83.15 42.15Q83.60 42.45 83.60 43.15Q83.60 44.40 82.30 51.75L81 59.80Q84.85 56.90 88.50 54.50Q89.15 54.10 89.65 54.10M67.75 83.05Q69 83.05 70.55 80.15Q72.10 77.25 73.65 70.50Q69.80 73.75 68.08 76.42Q66.35 79.10 66.35 81.10Q66.35 81.95 66.67 82.50Q67 83.05 67.75 83.05ZM164.75 43.55Q165.90 43.55 166.43 44.05Q166.95 44.55 166.95 45.35Q166.95 46.65 166.18 47.65Q165.40 48.65 163.75 48.70Q159.80 48.75 156.65 48.10Q153.15 55.55 148.22 60.47Q143.30 65.40 138.50 65.40Q134.10 65.40 131.90 60.72Q129.70 56.05 129.40 48.20Q126.40 56.90 122.63 61.15Q118.85 65.40 114.60 65.40Q109.80 65.40 107.35 59.42Q104.90 53.45 104.90 43.35Q104.90 36.00 106.20 27.20Q106.55 24.70 107.47 23.72Q108.40 22.75 110.40 22.75Q111.90 22.75 112.72 23.40Q113.55 24.05 113.55 25.80Q113.55 26.15 113.45 27.15Q111.95 37.40 111.95 44.60Q111.95 51.30 113.10 54.95Q114.25 58.60 116.20 58.60Q117.95 58.60 120.42 54.92Q122.90 51.25 125.35 44.02Q127.80 36.80 129.50 26.80Q129.90 24.50 130.97 23.62Q132.05 22.75 133.90 22.75Q135.45 22.75 136.18 23.42Q136.90 24.10 136.90 25.45Q136.90 26.25 136.80 26.70Q135.40 34.85 135.40 43.00Q135.40 48.55 135.78 51.85Q136.15 55.15 137.22 56.87Q138.30 58.60 140.35 58.60Q142.75 58.60 145.70 54.97Q148.65 51.35 151.10 45.95Q148.05 44.05 146.50 41.02Q144.95 38.00 144.95 34.05Q144.95 30.10 146.18 27.37Q147.40 24.65 149.53 23.30Q151.65 21.95 154.25 21.95Q157.45 21.95 159.32 24.25Q161.20 26.55 161.20 30.55Q161.20 36.20 158.75 43.10Q161.30 43.55 164.75 43.55M150 33.70Q150 38.60 153.15 40.95Q155.10 35.35 155.10 31.70Q155.10 29.60 154.55 28.62Q154 27.65 153.05 27.65Q151.70 27.65 150.85 29.22Q150 30.80 150 33.70ZM187.60 49.80Q188.25 49.80 188.60 50.45Q188.95 51.10 188.95 52.10Q188.95 54.50 187.50 54.95Q184.50 56.00 180.90 56.15Q179.95 60.35 177.15 62.87Q174.35 65.40 170.80 65.40Q167.80 65.40 165.67 63.95Q163.55 62.50 162.45 60.10Q161.35 57.70 161.35 54.90Q161.35 51.10 162.80 48.12Q164.25 45.15 166.80 43.47Q169.35 41.80 172.45 41.80Q176.25 41.80 178.57 44.42Q180.90 47.05 181.30 50.90Q183.65 50.75 186.90 49.90Q187.30 49.80 187.60 49.80M171.20 60.10Q172.80 60.10 173.97 58.80Q175.15 57.50 175.55 55.05Q174 54.00 173.17 52.30Q172.35 50.60 172.35 48.70Q172.35 47.90 172.50 47.10L172.25 47.10Q170.25 47.10 168.92 49.02Q167.60 50.95 167.60 54.45Q167.60 57.20 168.67 58.65Q169.75 60.10 171.20 60.10ZM188.20 65.40Q186.30 65.40 185.53 63.40Q184.75 61.40 184.75 57.00Q184.75 50.50 186.60 44.65Q187.05 43.20 188.07 42.52Q189.10 41.85 190.95 41.85Q191.95 41.85 192.35 42.10Q192.75 42.35 192.75 43.05Q192.75 43.85 192 46.65Q191.50 48.65 191.20 50.15Q190.90 51.65 190.70 53.85Q192.35 49.55 194.40 46.85Q196.45 44.15 198.43 43.00Q200.40 41.85 202.05 41.85Q205.30 41.85 205.30 45.10Q205.30 45.75 204.85 48.25Q204.45 50.25 204.45 50.75Q204.45 52.50 205.70 52.50Q207.10 52.50 209.30 50.30Q209.95 49.65 210.65 49.65Q211.30 49.65 211.68 50.22Q212.05 50.80 212.05 51.75Q212.05 53.60 211.05 54.65Q209.65 56.10 207.78 57.12Q205.90 58.15 203.80 58.15Q201.15 58.15 199.78 56.80Q198.40 55.45 198.40 53.15Q198.40 52.40 198.55 51.65Q198.65 50.65 198.65 50.30Q198.65 49.50 198.10 49.50Q197.35 49.50 196.13 51.17Q194.90 52.85 193.70 55.60Q192.50 58.35 191.75 61.40Q191.20 63.75 190.47 64.57Q189.75 65.40 188.20 65.40ZM236.30 54.00Q236.95 54.00 237.32 54.60Q237.70 55.20 237.70 56.25Q237.70 58.25 236.75 59.35Q234.50 62.10 232.20 63.75Q229.90 65.40 226.75 65.40Q222.90 65.40 220.55 63.20Q218.20 61.00 218.20 57.35Q218.20 55.40 220.20 54.55Q222.40 53.60 223.35 52.52Q224.30 51.45 224.30 49.90Q224.30 49.00 223.93 48.55Q223.55 48.10 223 48.10Q221.65 48.10 220.03 50.05Q218.40 52.00 217 55.07Q215.60 58.15 214.80 61.40Q214.25 63.75 213.53 64.57Q212.80 65.40 211.25 65.40Q209.70 65.40 208.97 64.27Q208.25 63.15 208 60.80Q207.75 58.45 207.75 53.90Q207.75 46.20 209.32 37.85Q210.90 29.50 213.97 23.82Q217.05 18.15 221.35 18.15Q223.65 18.15 225.07 20.12Q226.50 22.10 226.50 25.25Q226.50 30.30 223.55 35.72Q220.60 41.15 213.95 48.40Q213.80 51.00 213.80 53.75Q216.20 47.50 219.30 44.67Q222.40 41.85 225.10 41.85Q227.60 41.85 229.13 43.55Q230.65 45.25 230.65 47.75Q230.65 50.50 229.25 52.80Q227.85 55.10 224.45 56.90Q224.65 58.25 225.68 59.07Q226.70 59.90 228.15 59.90Q229.70 59.90 231.15 58.70Q232.60 57.50 234.95 54.70Q235.55 54.00 236.30 54.00M220.30 23.10Q219.40 23.10 218.30 25.67Q217.20 28.25 216.18 32.62Q215.15 37.00 214.50 42.15Q217.60 38.50 219.63 34.20Q221.65 29.90 221.65 26.40Q221.65 24.80 221.30 23.95Q220.95 23.10 220.30 23.10ZM260.90 71.80Q255.15 71.80 252.10 67.95Q249.05 64.10 249.05 56.75Q249.05 51.25 250.15 45.25Q251.25 39.25 253.38 33.82Q255.50 28.40 258.40 24.70Q264.10 17.45 272.25 17.45Q274.60 17.45 276.85 18.22Q279.10 19.00 280.60 20.40Q281.45 21.20 281.45 22.45Q281.45 23.70 280.57 24.80Q279.70 25.90 278.65 25.90Q278.15 25.90 277.50 25.50Q274.25 23.25 271.55 23.25Q269.50 23.25 267.65 24.35Q265.80 25.45 264.25 27.40Q261.60 30.75 259.70 35.72Q257.80 40.70 256.80 46.12Q255.80 51.55 255.80 56.25Q255.80 59.95 256.32 62.07Q256.85 64.20 258 65.10Q259.15 66.00 261.05 66.00Q264.65 66.00 268.80 61.85Q269.60 61.05 270.45 61.05Q271.40 61.05 272.07 61.90Q272.75 62.75 272.75 63.90Q272.75 65.30 271.75 66.45Q269.60 68.85 266.65 70.32Q263.70 71.80 260.90 71.80ZM299.85 23.05Q301.15 23.05 302.05 23.67Q302.95 24.30 302.95 25.20Q302.95 26.80 301.95 27.77Q300.95 28.75 299.10 28.75Q296.20 28.75 294.70 28.80Q294.60 29.40 293.80 34.20Q292.90 39.55 292.70 40.75L291.65 47.30Q290.55 54.65 289.90 59.60Q290.95 59.55 292.75 59.55Q295.40 59.55 296.35 60.25Q297.30 60.95 297.30 62.35Q297.30 63.65 296.27 64.55Q295.25 65.45 293.40 65.45Q292.15 65.45 289.45 65.35Q286.95 65.25 286.15 65.25Q283 65.25 279.25 65.80Q277.60 66.05 276.90 66.05Q275.80 66.05 275.05 65.45Q274.30 64.85 274.30 63.70Q274.30 61.90 275.90 60.90Q277.50 59.90 280.40 59.85L282.75 59.80L282.90 58.70Q284.10 50.70 284.65 47.40L285.75 40.85Q286.75 35.05 287.55 28.90L283.35 28.95Q281.55 28.95 280.88 28.37Q280.20 27.80 280.20 26.75Q280.20 23.35 285.10 23.10Q287.40 23.00 290.70 23.00L299.85 23.05ZM305.85 65.40Q303.95 65.40 303.17 63.40Q302.40 61.40 302.40 57.00Q302.40 50.50 304.25 44.65Q304.70 43.20 305.72 42.52Q306.75 41.85 308.60 41.85Q309.60 41.85 310 42.10Q310.40 42.35 310.40 43.05Q310.40 43.85 309.65 46.65Q309.15 48.65 308.85 50.15Q308.55 51.65 308.35 53.85Q310 49.55 312.05 46.85Q314.10 44.15 316.07 43.00Q318.05 41.85 319.70 41.85Q322.95 41.85 322.95 45.10Q322.95 47.05 321.85 52.15Q320.90 56.50 320.90 57.90Q320.90 59.90 322.35 59.90Q323.35 59.90 324.72 58.67Q326.10 57.45 328.40 54.70Q329 54.00 329.75 54.00Q330.40 54.00 330.77 54.60Q331.15 55.20 331.15 56.25Q331.15 58.25 330.20 59.35Q328.05 62.00 325.57 63.70Q323.10 65.40 319.95 65.40Q317.40 65.40 316.10 63.92Q314.80 62.45 314.80 59.65Q314.80 58.25 315.50 54.65Q316.15 51.50 316.15 50.30Q316.15 49.50 315.60 49.50Q314.95 49.50 313.77 51.17Q312.60 52.85 311.38 55.60Q310.15 58.35 309.40 61.40Q308.85 63.75 308.13 64.57Q307.40 65.40 305.85 65.40ZM379.10 35.35Q379.10 39.60 376.90 43.15Q374.70 46.70 370.50 48.95Q366.30 51.20 360.50 51.60L358.35 63.65Q357.10 70.60 351.55 70.60Q348.50 70.60 345.93 68.80Q343.35 67.00 341.80 63.30Q340.25 59.60 340.25 54.20Q340.25 44.05 343.52 36.97Q346.80 29.90 352.32 26.37Q357.85 22.85 364.50 22.85Q369.20 22.85 372.47 24.50Q375.75 26.15 377.43 28.97Q379.10 31.80 379.10 35.35M361.40 46.45Q371.65 45.15 371.65 35.80Q371.65 32.50 369.47 30.42Q367.30 28.35 362.75 28.35Q357.60 28.35 353.77 31.60Q349.95 34.85 347.88 40.62Q345.80 46.40 345.80 53.80Q345.80 56.90 346.43 59.30Q347.05 61.70 348.02 63.02Q349 64.35 349.90 64.35Q351.15 64.35 351.80 60.90L353.45 51.45Q351.50 51.15 351.75 51.20Q350.25 50.95 349.80 50.27Q349.35 49.60 349.35 48.55Q349.35 47.45 349.97 46.80Q350.60 46.15 351.70 46.15Q352.20 46.15 352.45 46.20Q353.65 46.40 354.30 46.45Q354.95 42.55 356.15 36.00Q356.45 34.30 357.52 33.57Q358.60 32.85 360.05 32.85Q361.70 32.85 362.43 33.47Q363.15 34.10 363.15 35.45Q363.15 36.25 363.05 36.75L361.40 46.45ZM384.15 65.40Q382.25 65.40 381.47 63.40Q380.70 61.40 380.70 57.00Q380.70 50.50 382.55 44.65Q383 43.20 384.02 42.52Q385.05 41.85 386.90 41.85Q387.90 41.85 388.30 42.10Q388.70 42.35 388.70 43.05Q388.70 43.85 387.95 46.65Q387.45 48.65 387.15 50.15Q386.85 51.65 386.65 53.85Q388.30 49.55 390.35 46.85Q392.40 44.15 394.38 43.00Q396.35 41.85 398 41.85Q401.25 41.85 401.25 45.10Q401.25 45.75 400.80 48.25Q400.40 50.25 400.40 50.75Q400.40 52.50 401.65 52.50Q403.05 52.50 405.25 50.30Q405.90 49.65 406.60 49.65Q407.25 49.65 407.63 50.22Q408 50.80 408 51.75Q408 53.60 407 54.65Q405.60 56.10 403.72 57.12Q401.85 58.15 399.75 58.15Q397.10 58.15 395.72 56.80Q394.35 55.45 394.35 53.15Q394.35 52.40 394.50 51.65Q394.60 50.65 394.60 50.30Q394.60 49.50 394.05 49.50Q393.30 49.50 392.07 51.17Q390.85 52.85 389.65 55.60Q388.45 58.35 387.70 61.40Q387.15 63.75 386.43 64.57Q385.70 65.40 384.15 65.40ZM428.85 49.80Q429.50 49.80 429.85 50.45Q430.20 51.10 430.20 52.10Q430.20 54.50 428.75 54.95Q425.75 56.00 422.15 56.15Q421.20 60.35 418.40 62.87Q415.60 65.40 412.05 65.40Q409.05 65.40 406.93 63.95Q404.80 62.50 403.70 60.10Q402.60 57.70 402.60 54.90Q402.60 51.10 404.05 48.12Q405.50 45.15 408.05 43.47Q410.60 41.80 413.70 41.80Q417.50 41.80 419.82 44.42Q422.15 47.05 422.55 50.90Q424.90 50.75 428.15 49.90Q428.55 49.80 428.85 49.80M412.45 60.10Q414.05 60.10 415.22 58.80Q416.40 57.50 416.80 55.05Q415.25 54.00 414.43 52.30Q413.60 50.60 413.60 48.70Q413.60 47.90 413.75 47.10L413.50 47.10Q411.50 47.10 410.18 49.02Q408.85 50.95 408.85 54.45Q408.85 57.20 409.93 58.65Q411 60.10 412.45 60.10ZM451.50 54.10Q452.15 54.10 452.52 54.72Q452.90 55.35 452.90 56.30Q452.90 57.45 452.55 58.10Q452.20 58.75 451.45 59.25Q447.15 62.15 445.15 63.55L441.95 65.70Q440.05 76.05 436.98 81.97Q433.90 87.90 429.15 87.90Q426.60 87.90 425 86.32Q423.40 84.75 423.40 82.20Q423.40 78.65 426.20 74.57Q429 70.50 436.70 64.55L437 62.60Q436.15 63.95 434.77 64.67Q433.40 65.40 432.05 65.40Q428.95 65.40 427.10 63.15Q425.25 60.90 425.25 57.25Q425.25 53.25 427.10 49.67Q428.95 46.10 432.02 43.92Q435.10 41.75 438.55 41.75Q439.65 41.75 440.02 42.17Q440.40 42.60 440.65 43.70Q441.60 43.50 442.85 43.50Q444.10 43.50 444.63 43.87Q445.15 44.25 445.15 45.35Q445.15 45.95 445.10 46.30Q444.90 47.85 443.85 54.15Q443.65 55.35 443.43 56.77Q443.20 58.20 442.95 59.80Q446.80 56.80 450.35 54.50Q451 54.10 451.50 54.10M433.85 60.35Q435 60.35 436.05 58.95Q437.10 57.55 437.55 54.95L439.15 46.40Q437.10 46.45 435.35 47.97Q433.60 49.50 432.55 52.00Q431.50 54.50 431.50 57.30Q431.50 58.85 432.13 59.60Q432.75 60.35 433.85 60.35M429.70 83.05Q430.95 83.05 432.52 80.05Q434.10 77.05 435.55 70.50Q431.70 73.80 430 76.45Q428.30 79.10 428.30 81.10Q428.30 81.95 428.63 82.50Q428.95 83.05 429.70 83.05ZM453.40 65.40Q451.50 65.40 450.72 63.40Q449.95 61.40 449.95 57.00Q449.95 50.50 451.80 44.65Q452.25 43.20 453.27 42.52Q454.30 41.85 456.15 41.85Q457.15 41.85 457.55 42.10Q457.95 42.35 457.95 43.05Q457.95 43.85 457.20 46.65Q456.70 48.65 456.40 50.15Q456.10 51.65 455.90 53.85Q457.55 49.55 459.60 46.85Q461.65 44.15 463.63 43.00Q465.60 41.85 467.25 41.85Q470.50 41.85 470.50 45.10Q470.50 45.75 470.05 48.25Q469.65 50.25 469.65 50.75Q469.65 52.50 470.90 52.50Q472.30 52.50 474.50 50.30Q475.15 49.65 475.85 49.65Q476.50 49.65 476.88 50.22Q477.25 50.80 477.25 51.75Q477.25 53.60 476.25 54.65Q474.85 56.10 472.97 57.12Q471.10 58.15 469 58.15Q466.35 58.15 464.97 56.80Q463.60 55.45 463.60 53.15Q463.60 52.40 463.75 51.65Q463.85 50.65 463.85 50.30Q463.85 49.50 463.30 49.50Q462.55 49.50 461.32 51.17Q460.10 52.85 458.90 55.60Q457.70 58.35 456.95 61.40Q456.40 63.75 455.68 64.57Q454.95 65.40 453.40 65.40ZM494.90 54.00Q495.55 54.00 495.93 54.60Q496.30 55.20 496.30 56.25Q496.30 58.25 495.35 59.35Q493.50 61.60 490.13 63.50Q486.75 65.40 482.90 65.40Q477.65 65.40 474.75 62.55Q471.85 59.70 471.85 54.75Q471.85 51.30 473.30 48.32Q474.75 45.35 477.32 43.60Q479.90 41.85 483.15 41.85Q486.05 41.85 487.80 43.57Q489.55 45.30 489.55 48.25Q489.55 51.70 487.07 54.17Q484.60 56.65 478.70 58.10Q479.95 60.40 483.45 60.40Q485.70 60.40 488.57 58.82Q491.45 57.25 493.55 54.70Q494.15 54.00 494.90 54.00M482.30 46.75Q480.45 46.75 479.18 48.90Q477.90 51.05 477.90 54.10L477.90 54.20Q480.85 53.50 482.55 52.10Q484.25 50.70 484.25 48.85Q484.25 47.90 483.72 47.32Q483.20 46.75 482.30 46.75ZM501.55 66.50Q498.95 66.50 497.57 65.30Q496.20 64.10 496.20 62.60Q496.20 61.30 497.15 60.35Q498.10 59.40 499.95 59.40Q500.60 59.40 501.47 59.52Q502.35 59.65 502.80 59.70Q502.75 58.40 502.22 57.25Q501.70 56.10 500.90 55.02Q500.10 53.95 499.40 53.15Q497.85 56.10 496.32 58.05Q494.80 60.00 493.00 61.75Q492.10 62.65 491.10 62.65Q490.30 62.65 489.80 62.07Q489.30 61.50 489.30 60.65Q489.30 59.65 490.00 58.80L490.65 58.00Q493.40 54.60 494.80 52.40Q495.65 50.95 496.80 48.52Q497.95 46.10 499.05 43.50Q500.00 41.30 503.00 41.30Q504.40 41.30 504.95 41.55Q505.50 41.80 505.50 42.35Q505.50 42.65 505.30 43.30Q505.10 43.95 504.75 44.60Q503.85 46.40 503.85 47.65Q503.85 48.40 504.37 49.30Q504.90 50.20 506.00 51.55Q507.60 53.65 508.42 55.12Q509.25 56.60 509.25 58.35Q509.25 58.85 509.15 59.75Q511.60 58.80 514.90 54.70Q515.50 54.00 516.25 54.00Q516.90 54.00 517.27 54.60Q517.65 55.20 517.65 56.25Q517.65 58.15 516.70 59.35Q514.20 62.45 511.92 63.57Q509.65 64.70 506.30 64.80Q504.30 66.50 501.55 66.50ZM522.90 66.50Q520.30 66.50 518.92 65.30Q517.55 64.10 517.55 62.60Q517.55 61.30 518.50 60.35Q519.45 59.40 521.30 59.40Q521.95 59.40 522.83 59.52Q523.70 59.65 524.15 59.70Q524.10 58.40 523.58 57.25Q523.05 56.10 522.25 55.02Q521.45 53.95 520.75 53.15Q519.20 56.10 517.67 58.05Q516.15 60.00 514.35 61.75Q513.45 62.65 512.45 62.65Q511.65 62.65 511.15 62.07Q510.65 61.50 510.65 60.65Q510.65 59.65 511.35 58.80L512 58.00Q514.75 54.60 516.15 52.40Q517 50.95 518.15 48.52Q519.30 46.10 520.40 43.50Q521.35 41.30 524.35 41.30Q525.75 41.30 526.30 41.55Q526.85 41.80 526.85 42.35Q526.85 42.65 526.65 43.30Q526.45 43.95 526.10 44.60Q525.20 46.40 525.20 47.65Q525.20 48.40 525.73 49.30Q526.25 50.20 527.35 51.55Q528.95 53.65 529.77 55.12Q530.60 56.60 530.60 58.35Q530.60 58.85 530.50 59.75Q532.95 58.80 536.25 54.70Q536.85 54.00 537.60 54.00Q538.25 54.00 538.63 54.60Q539 55.20 539 56.25Q539 58.15 538.05 59.35Q535.55 62.45 533.27 63.57Q531 64.70 527.65 64.80Q525.65 66.50 522.90 66.50ZM537.65 71.80Q535.30 71.80 533.05 71.02Q530.80 70.25 529.30 68.85Q528.45 68.05 528.45 66.80Q528.45 65.55 529.32 64.45Q530.20 63.35 531.25 63.35Q531.75 63.35 532.40 63.75Q535.65 66.00 538.35 66.00Q540.40 66.00 542.25 64.90Q544.10 63.80 545.65 61.85Q548.30 58.50 550.20 53.52Q552.10 48.55 553.10 43.12Q554.10 37.70 554.10 33.00Q554.10 29.30 553.57 27.17Q553.05 25.05 551.90 24.15Q550.75 23.25 548.85 23.25Q545.25 23.25 541.10 27.40Q540.30 28.20 539.45 28.20Q538.50 28.20 537.82 27.35Q537.15 26.50 537.15 25.35Q537.15 23.95 538.15 22.80Q540.30 20.40 543.25 18.92Q546.20 17.45 549 17.45Q554.75 17.45 557.80 21.30Q560.85 25.15 560.85 32.50Q560.85 38.00 559.75 44.00Q558.65 50.00 556.52 55.42Q554.40 60.85 551.50 64.55Q545.80 71.80 537.65 71.80Z"/></g></g></svg>