<svg xmlns="http://www.w3.org/2000/svg" viewBox="0 18.149999618530273 588.8499755859375 69.8499984741211" data-asc="1.303" width="588.8499755859375" height="69.8499984741211"><defs/><g fill="#a77bf7"><g transform="translate(0, 0)"><path d="M59.85 43.55Q61 43.55 61.53 44.05Q62.05 44.55 62.05 45.35Q62.05 46.65 61.28 47.65Q60.50 48.65 58.85 48.70Q54.90 48.75 51.75 48.10Q48.25 55.55 43.33 60.47Q38.40 65.40 33.60 65.40Q29.20 65.40 27.00 60.72Q24.80 56.05 24.50 48.20Q21.50 56.90 17.73 61.15Q13.95 65.40 9.70 65.40Q4.90 65.40 2.45 59.42Q0 53.45 0 43.35Q0 36.00 1.30 27.20Q1.65 24.70 2.57 23.72Q3.50 22.75 5.50 22.75Q7 22.75 7.82 23.40Q8.65 24.05 8.65 25.80Q8.65 26.15 8.55 27.15Q7.05 37.40 7.05 44.60Q7.05 51.30 8.20 54.95Q9.35 58.60 11.30 58.60Q13.05 58.60 15.53 54.92Q18 51.25 20.45 44.02Q22.90 36.80 24.60 26.80Q25 24.50 26.07 23.62Q27.15 22.75 29.00 22.75Q30.55 22.75 31.28 23.42Q32 24.10 32 25.45Q32 26.25 31.90 26.70Q30.50 34.85 30.50 43.00Q30.50 48.55 30.88 51.85Q31.25 55.15 32.33 56.87Q33.40 58.60 35.45 58.60Q37.85 58.60 40.80 54.97Q43.75 51.35 46.20 45.95Q43.15 44.05 41.60 41.02Q40.05 38.00 40.05 34.05Q40.05 30.10 41.28 27.37Q42.50 24.65 44.63 23.30Q46.75 21.95 49.35 21.95Q52.55 21.95 54.42 24.25Q56.30 26.55 56.30 30.55Q56.30 36.20 53.85 43.10Q56.40 43.55 59.85 43.55M45.10 33.70Q45.10 38.60 48.25 40.95Q50.20 35.35 50.20 31.70Q50.20 29.60 49.65 28.62Q49.10 27.65 48.15 27.65Q46.80 27.65 45.95 29.22Q45.10 30.80 45.10 33.70ZM84.95 54.00Q85.60 54.00 85.97 54.60Q86.35 55.20 86.35 56.25Q86.35 58.25 85.40 59.35Q83.10 62.00 80.67 63.70Q78.25 65.40 75.15 65.40Q72.60 65.40 71.30 63.92Q70 62.45 70 59.65Q70 58.25 70.70 54.65Q71.35 51.50 71.35 50.30Q71.35 49.50 70.80 49.50Q70.15 49.50 68.95 51.17Q67.75 52.85 66.55 55.60Q65.35 58.35 64.60 61.40Q63.65 65.40 59.90 65.40Q58.40 65.40 57.92 64.32Q57.45 63.25 57.45 60.45Q57.45 58.85 57.50 57.90L57.55 53.90Q57.55 46.20 59.13 37.85Q60.70 29.50 63.77 23.82Q66.85 18.15 71.15 18.15Q73.45 18.15 74.88 20.12Q76.30 22.10 76.30 25.25Q76.30 30.30 73.35 35.72Q70.40 41.15 63.75 48.40Q63.60 51.00 63.60 53.75Q65.25 49.50 67.28 46.82Q69.30 44.15 71.28 43.00Q73.25 41.85 74.90 41.85Q78.15 41.85 78.15 45.10Q78.15 47.05 77.05 52.15Q76.10 56.50 76.10 57.90Q76.10 59.90 77.55 59.90Q78.55 59.90 79.92 58.67Q81.30 57.45 83.60 54.70Q84.20 54.00 84.95 54.00M70.10 23.10Q69.20 23.10 68.10 25.67Q67 28.25 65.97 32.62Q64.95 37.00 64.30 42.15Q67.40 38.50 69.42 34.20Q71.45 29.90 71.45 26.40Q71.45 24.80 71.10 23.95Q70.75 23.10 70.10 23.10ZM88.45 65.40Q85.35 65.40 83.50 63.15Q81.65 60.90 81.65 57.25Q81.65 53.25 83.50 49.67Q85.35 46.10 88.43 43.92Q91.50 41.75 94.95 41.75Q96.05 41.75 96.43 42.17Q96.80 42.60 97.05 43.70Q98.10 43.50 99.25 43.50Q101.70 43.50 101.70 45.25Q101.70 46.30 100.95 50.25Q99.80 56.00 99.80 58.25Q99.80 59.00 100.18 59.45Q100.55 59.90 101.15 59.90Q102.10 59.90 103.45 58.67Q104.80 57.45 107.10 54.70Q107.70 54.00 108.45 54.00Q109.10 54.00 109.48 54.60Q109.85 55.20 109.85 56.25Q109.85 58.25 108.90 59.35Q106.85 61.90 104.55 63.65Q102.25 65.40 100.10 65.40Q98.45 65.40 97.08 64.27Q95.70 63.15 95 61.20Q92.40 65.40 88.45 65.40M90.25 60.35Q91.35 60.35 92.35 59.05Q93.35 57.75 93.80 55.60L95.65 46.40Q93.55 46.45 91.78 47.97Q90 49.50 88.95 52.00Q87.90 54.50 87.90 57.30Q87.90 58.85 88.53 59.60Q89.15 60.35 90.25 60.35ZM128.10 54.00Q128.75 54.00 129.13 54.60Q129.50 55.20 129.50 56.25Q129.50 58.25 128.55 59.35Q126.40 62.00 123.85 63.70Q121.30 65.40 118 65.40Q107.80 65.40 107.80 51.05Q107.80 48.85 107.95 46.60L106 46.60Q104.50 46.60 103.98 46.05Q103.45 45.50 103.45 44.30Q103.45 41.50 105.70 41.50L108.55 41.50Q109.40 36.00 111.15 31.45Q112.90 26.90 115.38 24.20Q117.85 21.50 120.70 21.50Q122.80 21.50 124 23.35Q125.20 25.20 125.20 28.00Q125.20 35.75 118.70 41.50L124.30 41.50Q125.10 41.50 125.45 41.85Q125.80 42.20 125.80 43.15Q125.80 46.60 120.15 46.60L114.05 46.60Q113.95 49.10 113.95 50.50Q113.95 55.70 115.18 57.80Q116.40 59.90 119.05 59.90Q121.20 59.90 122.85 58.60Q124.50 57.30 126.75 54.70Q127.35 54.00 128.10 54.00M119.35 26.30Q118.60 26.30 117.68 28.17Q116.75 30.05 115.93 33.37Q115.10 36.70 114.55 40.75Q117.50 38.20 118.98 35.02Q120.45 31.85 120.45 29.25Q120.45 26.30 119.35 26.30ZM145.25 38.55Q143.15 38.55 142.10 37.57Q141.05 36.60 141.05 34.85Q141.05 33.10 142.43 31.92Q143.80 30.75 145.85 30.75Q147.70 30.75 148.85 31.65Q150 32.55 150 34.20Q150 36.20 148.70 37.37Q147.40 38.55 145.25 38.55M144.85 65.40Q141.60 65.40 140.13 63.10Q138.65 60.80 138.65 57.00Q138.65 54.75 139.23 51.22Q139.80 47.70 140.70 44.65Q141.15 43.05 141.90 42.45Q142.65 41.85 144.30 41.85Q146.85 41.85 146.85 43.55Q146.85 44.80 145.90 49.35Q144.70 54.85 144.70 56.80Q144.70 58.30 145.10 59.10Q145.50 59.90 146.45 59.90Q147.35 59.90 148.70 58.65Q150.05 57.40 152.30 54.70Q152.90 54.00 153.65 54.00Q154.30 54.00 154.68 54.60Q155.05 55.20 155.05 56.25Q155.05 58.25 154.10 59.35Q149.15 65.40 144.85 65.40ZM160.30 66.50Q157.70 66.50 156.33 65.30Q154.95 64.10 154.95 62.60Q154.95 61.30 155.90 60.35Q156.85 59.40 158.70 59.40Q159.35 59.40 160.23 59.52Q161.10 59.65 161.55 59.70Q161.50 58.40 160.98 57.25Q160.45 56.10 159.65 55.02Q158.85 53.95 158.15 53.15Q156.60 56.10 155.08 58.05Q153.55 60.00 151.75 61.75Q150.85 62.65 149.85 62.65Q149.05 62.65 148.55 62.07Q148.05 61.50 148.05 60.65Q148.05 59.65 148.75 58.80L149.40 58.00Q152.15 54.60 153.55 52.40Q154.40 50.95 155.55 48.52Q156.70 46.10 157.80 43.50Q158.75 41.30 161.75 41.30Q163.15 41.30 163.70 41.55Q164.25 41.80 164.25 42.35Q164.25 42.65 164.05 43.30Q163.85 43.95 163.50 44.60Q162.60 46.40 162.60 47.65Q162.60 48.40 163.13 49.30Q163.65 50.20 164.75 51.55Q166.35 53.65 167.18 55.12Q168.00 56.60 168.00 58.35Q168.00 58.85 167.90 59.75Q170.35 58.80 173.65 54.70Q174.25 54.00 175.00 54.00Q175.65 54.00 176.03 54.60Q176.40 55.20 176.40 56.25Q176.40 58.15 175.45 59.35Q172.95 62.45 170.68 63.57Q168.40 64.70 165.05 64.80Q163.05 66.50 160.30 66.50ZM189.15 65.40Q187.25 65.40 186.48 63.40Q185.70 61.40 185.70 57.00Q185.70 50.50 187.55 44.65Q188.00 43.20 189.03 42.52Q190.05 41.85 191.90 41.85Q192.90 41.85 193.30 42.10Q193.70 42.35 193.70 43.05Q193.70 43.85 192.95 46.65Q192.45 48.65 192.15 50.12Q191.85 51.60 191.65 53.80Q193.00 49.90 194.88 47.20Q196.75 44.50 198.73 43.17Q200.70 41.85 202.45 41.85Q204.20 41.85 204.93 42.65Q205.65 43.45 205.65 45.10Q205.65 46.70 204.70 50.90Q204.30 52.70 204.15 53.60Q206.65 47.45 209.70 44.65Q212.75 41.85 215.40 41.85Q218.65 41.85 218.65 45.10Q218.65 47.05 217.55 52.15Q216.60 56.50 216.60 57.90Q216.60 59.90 218.05 59.90Q219.05 59.90 220.43 58.67Q221.80 57.45 224.10 54.70Q224.70 54.00 225.45 54.00Q226.10 54.00 226.48 54.60Q226.85 55.20 226.85 56.25Q226.85 58.25 225.90 59.35Q223.75 62.00 221.28 63.70Q218.80 65.40 215.65 65.40Q213.10 65.40 211.80 63.92Q210.50 62.45 210.50 59.65Q210.50 58.25 211.20 54.65Q211.85 51.50 211.85 50.30Q211.85 49.50 211.30 49.50Q210.65 49.50 209.45 51.17Q208.25 52.85 207.05 55.60Q205.85 58.35 205.10 61.40Q204.55 63.80 203.83 64.60Q203.10 65.40 201.50 65.40Q199.85 65.40 199.03 63.82Q198.20 62.25 198.20 60.00Q198.20 58.10 198.70 54.50Q199.10 51.30 199.10 50.30Q199.10 49.50 198.55 49.50Q197.80 49.50 196.65 51.30Q195.50 53.10 194.43 55.90Q193.35 58.70 192.70 61.40Q192.15 63.75 191.43 64.57Q190.70 65.40 189.15 65.40ZM248.40 54.10Q249.05 54.10 249.43 54.72Q249.80 55.35 249.80 56.30Q249.80 57.45 249.45 58.10Q249.10 58.75 248.35 59.25L238.75 65.70Q236.85 76.05 233.78 81.97Q230.70 87.90 225.95 87.90Q223.40 87.90 221.80 86.32Q220.20 84.75 220.20 82.20Q220.20 79.85 221.28 77.40Q222.35 74.95 225.28 71.77Q228.20 68.60 233.55 64.50L233.70 63.35Q234.05 61.50 234.50 58.05Q233.50 61.65 231.70 63.52Q229.90 65.40 227.90 65.40Q225.65 65.40 224.23 63.32Q222.80 61.25 222.80 58.15Q222.80 54.40 223.30 51.27Q223.80 48.15 224.95 44.65Q225.45 43.15 226.35 42.50Q227.25 41.85 229.20 41.85Q230.30 41.85 230.73 42.20Q231.15 42.55 231.15 43.25Q231.15 43.65 230.60 45.95Q230.10 47.80 229.80 49.30Q229.40 51.35 229.10 53.22Q228.80 55.10 228.80 56.30Q228.80 58.20 229.85 58.20Q230.60 58.20 231.73 56.70Q232.85 55.20 234.13 52.15Q235.40 49.10 236.60 44.65Q237.00 43.15 237.83 42.50Q238.65 41.85 240.30 41.85Q241.45 41.85 241.90 42.15Q242.35 42.45 242.35 43.15Q242.35 44.40 241.05 51.75L239.75 59.80Q243.60 56.90 247.25 54.50Q247.90 54.10 248.40 54.10M226.50 83.05Q227.75 83.05 229.30 80.15Q230.85 77.25 232.40 70.50Q228.55 73.75 226.83 76.42Q225.10 79.10 225.10 81.10Q225.10 81.95 225.43 82.50Q225.75 83.05 226.50 83.05ZM286.70 54.00Q287.35 54.00 287.73 54.60Q288.10 55.20 288.10 56.25Q288.10 58.25 287.15 59.35Q285 62.00 282.53 63.70Q280.05 65.40 276.90 65.40Q274.25 65.40 272.60 63.50Q269.75 65.35 266.65 65.40Q266 75.05 263.70 81.52Q261.40 88 256.95 88Q254.25 88 252.95 86.05Q251.65 84.10 251.65 80.65Q251.65 75.75 253.90 69.22Q256.15 62.70 260.85 54.85Q260.85 47.55 260.75 44.70Q260.70 43.25 261.90 42.40Q263.10 41.55 264.90 41.55Q265.95 41.55 266.43 41.97Q266.90 42.40 266.95 43.65Q266.95 44.90 267 45.50Q268.60 43.50 270.15 42.62Q271.70 41.75 273.45 41.75Q276.25 41.75 278.03 44.00Q279.80 46.25 279.80 49.90Q279.80 52.55 278.95 55.05Q278.10 57.55 276.60 59.60Q277.65 59.90 278.35 59.90Q280 59.90 281.50 58.70Q283 57.50 285.35 54.70Q285.95 54.00 286.70 54.00M266.90 60.60Q268.70 60.20 270.23 58.62Q271.75 57.05 272.65 54.72Q273.55 52.40 273.55 49.85Q273.55 48.35 272.95 47.57Q272.35 46.80 271.35 46.80Q269.55 46.80 267 50.60Q266.95 52.80 266.95 57.05Q266.95 59.35 266.90 60.60M257.35 83.10Q258.70 83.10 259.60 77.22Q260.50 71.35 260.75 62.60Q258.60 67.60 257.35 72.15Q256.10 76.70 256.10 79.80Q256.10 81.40 256.48 82.25Q256.85 83.10 257.35 83.10ZM289.15 65.40Q286.90 65.40 285.48 63.32Q284.05 61.25 284.05 58.15Q284.05 54.40 284.55 51.27Q285.05 48.15 286.20 44.65Q286.70 43.15 287.60 42.50Q288.50 41.85 290.45 41.85Q291.55 41.85 291.98 42.20Q292.40 42.55 292.40 43.25Q292.40 43.65 291.85 45.95Q291.35 47.80 291.05 49.30Q290.05 54.55 290.05 56.30Q290.05 57.35 290.30 57.77Q290.55 58.20 291.10 58.20Q291.85 58.20 292.98 56.70Q294.10 55.20 295.38 52.15Q296.65 49.10 297.85 44.65Q298.25 43.15 299.08 42.50Q299.90 41.85 301.55 41.85Q302.70 41.85 303.15 42.12Q303.60 42.40 303.60 43.15Q303.60 44.40 302.35 50.00Q300.95 56.40 300.95 57.90Q300.95 58.85 301.35 59.37Q301.75 59.90 302.40 59.90Q303.40 59.90 304.78 58.67Q306.15 57.45 308.45 54.70Q309.05 54.00 309.80 54.00Q310.45 54.00 310.83 54.60Q311.20 55.20 311.20 56.25Q311.20 58.25 310.25 59.35Q308.10 62.00 305.63 63.70Q303.15 65.40 300.00 65.40Q297.60 65.40 296.48 63.55Q295.35 61.70 295.35 58.35Q294.50 61.75 292.80 63.57Q291.10 65.40 289.15 65.40ZM310.70 65.40Q308.80 65.40 308.03 63.40Q307.25 61.40 307.25 57.00Q307.25 50.50 309.10 44.65Q309.55 43.20 310.58 42.52Q311.60 41.85 313.45 41.85Q314.45 41.85 314.85 42.10Q315.25 42.35 315.25 43.05Q315.25 43.85 314.50 46.65Q314.00 48.65 313.70 50.15Q313.40 51.65 313.20 53.85Q314.85 49.55 316.90 46.85Q318.95 44.15 320.93 43.00Q322.90 41.85 324.55 41.85Q327.80 41.85 327.80 45.10Q327.80 45.75 327.35 48.25Q326.95 50.25 326.95 50.75Q326.95 52.50 328.20 52.50Q329.60 52.50 331.80 50.30Q332.45 49.65 333.15 49.65Q333.80 49.65 334.18 50.22Q334.55 50.80 334.55 51.75Q334.55 53.60 333.55 54.65Q332.15 56.10 330.28 57.12Q328.40 58.15 326.30 58.15Q323.65 58.15 322.28 56.80Q320.90 55.45 320.90 53.15Q320.90 52.40 321.05 51.65Q321.15 50.65 321.15 50.30Q321.15 49.50 320.60 49.50Q319.85 49.50 318.63 51.17Q317.40 52.85 316.20 55.60Q315.00 58.35 314.25 61.40Q313.70 63.75 312.98 64.57Q312.25 65.40 310.70 65.40ZM356.60 54.00Q357.25 54.00 357.63 54.60Q358.00 55.20 358.00 56.25Q358.00 58.25 357.05 59.35Q354.90 62.00 352.43 63.70Q349.95 65.40 346.80 65.40Q344.15 65.40 342.50 63.50Q339.65 65.35 336.55 65.40Q335.90 75.05 333.60 81.52Q331.30 88 326.85 88Q324.15 88 322.85 86.05Q321.55 84.10 321.55 80.65Q321.55 75.75 323.80 69.22Q326.05 62.70 330.75 54.85Q330.75 47.55 330.65 44.70Q330.60 43.25 331.80 42.40Q333.00 41.55 334.80 41.55Q335.85 41.55 336.33 41.97Q336.80 42.40 336.85 43.65Q336.85 44.90 336.90 45.50Q338.50 43.50 340.05 42.62Q341.60 41.75 343.35 41.75Q346.15 41.75 347.93 44.00Q349.70 46.25 349.70 49.90Q349.70 52.55 348.85 55.05Q348.00 57.55 346.50 59.60Q347.55 59.90 348.25 59.90Q349.90 59.90 351.40 58.70Q352.90 57.50 355.25 54.70Q355.85 54.00 356.60 54.00M336.80 60.60Q338.60 60.20 340.13 58.62Q341.65 57.05 342.55 54.72Q343.45 52.40 343.45 49.85Q343.45 48.35 342.85 47.57Q342.25 46.80 341.25 46.80Q339.45 46.80 336.90 50.60Q336.85 52.80 336.85 57.05Q336.85 59.35 336.80 60.60M327.25 83.10Q328.60 83.10 329.50 77.22Q330.40 71.35 330.65 62.60Q328.50 67.60 327.25 72.15Q326.00 76.70 326.00 79.80Q326.00 81.40 326.38 82.25Q326.75 83.10 327.25 83.10ZM379.45 49.80Q380.10 49.80 380.45 50.45Q380.80 51.10 380.80 52.10Q380.80 54.50 379.35 54.95Q376.35 56.00 372.75 56.15Q371.80 60.35 369.00 62.87Q366.20 65.40 362.65 65.40Q359.65 65.40 357.53 63.95Q355.40 62.50 354.30 60.10Q353.20 57.70 353.20 54.90Q353.20 51.10 354.65 48.12Q356.10 45.15 358.65 43.47Q361.20 41.80 364.30 41.80Q368.10 41.80 370.43 44.42Q372.75 47.05 373.15 50.90Q375.50 50.75 378.75 49.90Q379.15 49.80 379.45 49.80M363.05 60.10Q364.65 60.10 365.83 58.80Q367.00 57.50 367.40 55.05Q365.85 54.00 365.03 52.30Q364.20 50.60 364.20 48.70Q364.20 47.90 364.35 47.10L364.10 47.10Q362.10 47.10 360.78 49.02Q359.45 50.95 359.45 54.45Q359.45 57.20 360.53 58.65Q361.60 60.10 363.05 60.10ZM385.80 66.50Q383.20 66.50 381.83 65.30Q380.45 64.10 380.45 62.60Q380.45 61.30 381.40 60.35Q382.35 59.40 384.20 59.40Q384.85 59.40 385.73 59.52Q386.60 59.65 387.05 59.70Q387.00 58.40 386.48 57.25Q385.95 56.10 385.15 55.02Q384.35 53.95 383.65 53.15Q382.10 56.10 380.58 58.05Q379.05 60.00 377.25 61.75Q376.35 62.65 375.35 62.65Q374.55 62.65 374.05 62.07Q373.55 61.50 373.55 60.65Q373.55 59.65 374.25 58.80L374.90 58.00Q377.65 54.60 379.05 52.40Q379.90 50.95 381.05 48.52Q382.20 46.10 383.30 43.50Q384.25 41.30 387.25 41.30Q388.65 41.30 389.20 41.55Q389.75 41.80 389.75 42.35Q389.75 42.65 389.55 43.30Q389.35 43.95 389.00 44.60Q388.10 46.40 388.10 47.65Q388.10 48.40 388.63 49.30Q389.15 50.20 390.25 51.55Q391.85 53.65 392.68 55.12Q393.50 56.60 393.50 58.35Q393.50 58.85 393.40 59.75Q395.85 58.80 399.15 54.70Q399.75 54.00 400.50 54.00Q401.15 54.00 401.53 54.60Q401.90 55.20 401.90 56.25Q401.90 58.15 400.95 59.35Q398.45 62.45 396.18 63.57Q393.90 64.70 390.55 64.80Q388.55 66.50 385.80 66.50ZM420.15 54.00Q420.80 54.00 421.18 54.60Q421.55 55.20 421.55 56.25Q421.55 58.25 420.60 59.35Q418.75 61.60 415.38 63.50Q412.00 65.40 408.15 65.40Q402.90 65.40 400.00 62.55Q397.10 59.70 397.10 54.75Q397.10 51.30 398.55 48.32Q400.00 45.35 402.58 43.60Q405.15 41.85 408.40 41.85Q411.30 41.85 413.05 43.57Q414.80 45.30 414.80 48.25Q414.80 51.70 412.33 54.17Q409.85 56.65 403.95 58.10Q405.20 60.40 408.70 60.40Q410.95 60.40 413.83 58.82Q416.70 57.25 418.80 54.70Q419.40 54.00 420.15 54.00M407.55 46.75Q405.70 46.75 404.43 48.90Q403.15 51.05 403.15 54.10L403.15 54.20Q406.10 53.50 407.80 52.10Q409.50 50.70 409.50 48.85Q409.50 47.90 408.98 47.32Q408.45 46.75 407.55 46.75ZM437.30 38.55Q435.20 38.55 434.15 37.57Q433.10 36.60 433.10 34.85Q433.10 33.10 434.48 31.92Q435.85 30.75 437.90 30.75Q439.75 30.75 440.90 31.65Q442.05 32.55 442.05 34.20Q442.05 36.20 440.75 37.37Q439.45 38.55 437.30 38.55M436.90 65.40Q433.65 65.40 432.18 63.10Q430.70 60.80 430.70 57.00Q430.70 54.75 431.28 51.22Q431.85 47.70 432.75 44.65Q433.20 43.05 433.95 42.45Q434.70 41.85 436.35 41.85Q438.90 41.85 438.90 43.55Q438.90 44.80 437.95 49.35Q436.75 54.85 436.75 56.80Q436.75 58.30 437.15 59.10Q437.55 59.90 438.50 59.90Q439.40 59.90 440.75 58.65Q442.10 57.40 444.35 54.70Q444.95 54.00 445.70 54.00Q446.35 54.00 446.73 54.60Q447.10 55.20 447.10 56.25Q447.10 58.25 446.15 59.35Q441.20 65.40 436.90 65.40ZM446.60 65.40Q444.70 65.40 443.93 63.40Q443.15 61.40 443.15 57.00Q443.15 50.50 445.00 44.65Q445.45 43.20 446.48 42.52Q447.50 41.85 449.35 41.85Q450.35 41.85 450.75 42.10Q451.15 42.35 451.15 43.05Q451.15 43.85 450.40 46.65Q449.90 48.65 449.60 50.15Q449.30 51.65 449.10 53.85Q450.75 49.55 452.80 46.85Q454.85 44.15 456.83 43.00Q458.80 41.85 460.45 41.85Q463.70 41.85 463.70 45.10Q463.70 47.05 462.60 52.15Q461.65 56.50 461.65 57.90Q461.65 59.90 463.10 59.90Q464.10 59.90 465.48 58.67Q466.85 57.45 469.15 54.70Q469.75 54.00 470.50 54.00Q471.15 54.00 471.53 54.60Q471.90 55.20 471.90 56.25Q471.90 58.25 470.95 59.35Q468.80 62.00 466.33 63.70Q463.85 65.40 460.70 65.40Q458.15 65.40 456.85 63.92Q455.55 62.45 455.55 59.65Q455.55 58.25 456.25 54.65Q456.90 51.50 456.90 50.30Q456.90 49.50 456.35 49.50Q455.70 49.50 454.53 51.17Q453.35 52.85 452.13 55.60Q450.90 58.35 450.15 61.40Q449.60 63.75 448.88 64.57Q448.15 65.40 446.60 65.40ZM517.40 54.00Q518.05 54.00 518.43 54.60Q518.80 55.20 518.80 56.25Q518.80 58.20 517.85 59.35Q515.05 62.70 512.43 64.05Q509.80 65.40 506.10 65.40Q503.50 65.40 501.30 64.75Q499.10 64.10 495.95 62.80Q493.10 61.55 490.45 60.75Q487.90 65.40 482.80 65.40Q480.00 65.40 478.33 64.12Q476.65 62.85 476.65 60.85Q476.65 58.40 479.00 56.77Q481.35 55.15 485.25 55.15L485.90 55.15L486.80 40.60Q487.10 35.60 488.60 32.35Q490.10 29.10 492.75 26.80Q495.05 24.80 498.00 23.77Q500.95 22.75 504.25 22.75Q509.65 22.75 512.55 25.55Q515.45 28.35 515.45 32.85Q515.45 35.90 514.35 37.77Q513.25 39.65 511.30 39.65Q509.90 39.65 509.10 38.97Q508.30 38.30 508.30 37.05Q508.30 36.60 508.50 35.40Q508.80 34.00 508.80 32.90Q508.80 30.80 507.58 29.57Q506.35 28.35 503.85 28.35Q499.45 28.35 497.05 31.22Q494.65 34.10 494.00 40.25L492.85 51.60Q492.60 54.00 492.20 55.75Q495.40 56.30 500.20 57.50Q503.00 58.20 504.50 58.50Q506.00 58.80 507.15 58.80Q510.05 58.80 512.13 57.82Q514.20 56.85 516.05 54.70Q516.65 54.00 517.40 54.00ZM521.30 38.55Q519.20 38.55 518.15 37.57Q517.10 36.60 517.10 34.85Q517.10 33.10 518.48 31.92Q519.85 30.75 521.90 30.75Q523.75 30.75 524.90 31.65Q526.05 32.55 526.05 34.20Q526.05 36.20 524.75 37.37Q523.45 38.55 521.30 38.55M520.90 65.40Q517.65 65.40 516.18 63.10Q514.70 60.80 514.70 57.00Q514.70 54.75 515.28 51.22Q515.85 47.70 516.75 44.65Q517.20 43.05 517.95 42.45Q518.70 41.85 520.35 41.85Q522.90 41.85 522.90 43.55Q522.90 44.80 521.95 49.35Q520.75 54.85 520.75 56.80Q520.75 58.30 521.15 59.10Q521.55 59.90 522.50 59.90Q523.40 59.90 524.75 58.65Q526.10 57.40 528.35 54.70Q528.95 54.00 529.70 54.00Q530.35 54.00 530.73 54.60Q531.10 55.20 531.10 56.25Q531.10 58.25 530.15 59.35Q525.20 65.40 520.90 65.40ZM547.00 51.15Q548.40 51.15 548.40 53.25Q548.40 57.20 542.20 57.20Q541.00 57.20 538.75 56.75Q539.40 59.85 539.83 63.62Q540.25 67.40 540.25 69.85Q540.25 75.25 538.50 78.10Q536.75 80.95 533.90 80.95Q530.30 80.95 528.78 75.85Q527.25 70.75 527.25 60.45Q527.25 50.85 529.33 40.97Q531.40 31.10 535.03 24.62Q538.65 18.15 543.00 18.15Q545.35 18.15 546.68 20.25Q548.00 22.35 548.00 25.90Q548.00 37.65 533.95 51.50Q533.45 56.40 533.45 60.10Q533.45 65.25 533.80 70.67Q534.15 76.10 534.95 76.10Q536.45 76.10 536.45 70.90Q536.45 67.00 535.93 63.35Q535.40 59.70 534.50 55.65Q534.45 55.00 534.93 54.00Q535.40 53.00 536.10 52.25Q536.80 51.50 537.35 51.50Q538.35 51.50 539.75 51.60Q540.20 51.65 540.80 51.65Q542.80 51.65 545.25 51.30Q545.65 51.25 546.10 51.20Q546.55 51.15 547.00 51.15M541.95 23.10Q541.05 23.10 539.73 26.15Q538.40 29.20 537.10 34.22Q535.80 39.25 534.85 44.85Q538.85 40.30 541.00 35.37Q543.15 30.45 543.20 26.15Q543.20 23.10 541.95 23.10ZM567.90 54.00Q568.55 54.00 568.93 54.60Q569.30 55.20 569.30 56.25Q569.30 58.25 568.35 59.35Q566.50 61.60 563.13 63.50Q559.75 65.40 555.90 65.40Q550.65 65.40 547.75 62.55Q544.85 59.70 544.85 54.75Q544.85 51.30 546.30 48.32Q547.75 45.35 550.33 43.60Q552.90 41.85 556.15 41.85Q559.05 41.85 560.80 43.57Q562.55 45.30 562.55 48.25Q562.55 51.70 560.08 54.17Q557.60 56.65 551.70 58.10Q552.95 60.40 556.45 60.40Q558.70 60.40 561.58 58.82Q564.45 57.25 566.55 54.70Q567.15 54.00 567.90 54.00M555.30 46.75Q553.45 46.75 552.18 48.90Q550.90 51.05 550.90 54.10L550.90 54.20Q553.85 53.50 555.55 52.10Q557.25 50.70 557.25 48.85Q557.25 47.90 556.73 47.32Q556.20 46.75 555.30 46.75ZM572.40 53.45Q571.50 53.45 570.95 52.92Q570.40 52.40 570.45 51.20Q570.65 48.05 571.95 45.60Q573.25 43.15 576.30 40.10Q579.15 37.30 580.40 35.35Q581.65 33.40 581.65 31.30Q581.65 27.85 577.80 27.85Q575.50 27.85 574.30 28.87Q573.10 29.90 573.10 31.45L573.15 33.50Q573.15 34.35 572.52 34.97Q571.90 35.60 570.55 35.60Q569 35.60 568.18 34.67Q567.35 33.75 567.35 32.05Q567.35 29.55 568.58 27.47Q569.80 25.40 572.30 24.15Q574.80 22.90 578.45 22.90Q583.40 22.90 586.13 25.02Q588.85 27.15 588.85 31.15Q588.85 34.30 587.25 36.85Q585.65 39.40 582.45 42.15Q579.75 44.45 578.35 45.90Q576.95 47.35 576.33 48.42Q575.70 49.50 575.30 50.90Q574.95 52.20 574.18 52.82Q573.40 53.45 572.40 53.45M570.50 65.40Q568.30 65.40 567.18 64.20Q566.05 63.00 566.05 61.05Q566.05 58.80 567.33 57.45Q568.60 56.10 570.90 56.10Q573.10 56.10 574.23 57.17Q575.35 58.25 575.35 60.35Q575.35 62.65 574.05 64.02Q572.75 65.40 570.50 65.40Z"/></g></g></svg>