<svg xmlns="http://www.w3.org/2000/svg" viewBox="0 18.149999618530273 328.54998779296875 47.900001525878906" data-asc="1.303" width="328.54998779296875" height="47.900001525878906"><defs/><g fill="#a77bf7"><g transform="translate(0, 0)"><path d="M59.85 43.55Q61 43.55 61.53 44.05Q62.05 44.55 62.05 45.35Q62.05 46.65 61.28 47.65Q60.50 48.65 58.85 48.70Q54.90 48.75 51.75 48.10Q48.25 55.55 43.33 60.47Q38.40 65.40 33.60 65.40Q29.20 65.40 27.00 60.72Q24.80 56.05 24.50 48.20Q21.50 56.90 17.73 61.15Q13.95 65.40 9.70 65.40Q4.90 65.40 2.45 59.42Q0 53.45 0 43.35Q0 36.00 1.30 27.20Q1.65 24.70 2.57 23.72Q3.50 22.75 5.50 22.75Q7 22.75 7.82 23.40Q8.65 24.05 8.65 25.80Q8.65 26.15 8.55 27.15Q7.05 37.40 7.05 44.60Q7.05 51.30 8.20 54.95Q9.35 58.60 11.30 58.60Q13.05 58.60 15.53 54.92Q18 51.25 20.45 44.02Q22.90 36.80 24.60 26.80Q25 24.50 26.07 23.62Q27.15 22.75 29.00 22.75Q30.55 22.75 31.28 23.42Q32 24.10 32 25.45Q32 26.25 31.90 26.70Q30.50 34.85 30.50 43.00Q30.50 48.55 30.88 51.85Q31.25 55.15 32.33 56.87Q33.40 58.60 35.45 58.60Q37.85 58.60 40.80 54.97Q43.75 51.35 46.20 45.95Q43.15 44.05 41.60 41.02Q40.05 38.00 40.05 34.05Q40.05 30.10 41.28 27.37Q42.50 24.65 44.63 23.30Q46.75 21.95 49.35 21.95Q52.55 21.95 54.42 24.25Q56.30 26.55 56.30 30.55Q56.30 36.20 53.85 43.10Q56.40 43.55 59.85 43.55M45.10 33.70Q45.10 38.60 48.25 40.95Q50.20 35.35 50.20 31.70Q50.20 29.60 49.65 28.62Q49.10 27.65 48.15 27.65Q46.80 27.65 45.95 29.22Q45.10 30.80 45.10 33.70ZM84.95 54.00Q85.60 54.00 85.97 54.60Q86.35 55.20 86.35 56.25Q86.35 58.25 85.40 59.35Q83.10 62.00 80.67 63.70Q78.25 65.40 75.15 65.40Q72.60 65.40 71.30 63.92Q70 62.45 70 59.65Q70 58.25 70.70 54.65Q71.35 51.50 71.35 50.30Q71.35 49.50 70.80 49.50Q70.15 49.50 68.95 51.17Q67.75 52.85 66.55 55.60Q65.35 58.35 64.60 61.40Q63.65 65.40 59.90 65.40Q58.40 65.40 57.92 64.32Q57.45 63.25 57.45 60.45Q57.45 58.85 57.50 57.90L57.55 53.90Q57.55 46.20 59.13 37.85Q60.70 29.50 63.77 23.82Q66.85 18.15 71.15 18.15Q73.45 18.15 74.88 20.12Q76.30 22.10 76.30 25.25Q76.30 30.30 73.35 35.72Q70.40 41.15 63.75 48.40Q63.60 51.00 63.60 53.75Q65.25 49.50 67.28 46.82Q69.30 44.15 71.28 43.00Q73.25 41.85 74.90 41.85Q78.15 41.85 78.15 45.10Q78.15 47.05 77.05 52.15Q76.10 56.50 76.10 57.90Q76.10 59.90 77.55 59.90Q78.55 59.90 79.92 58.67Q81.30 57.45 83.60 54.70Q84.20 54.00 84.95 54.00M70.10 23.10Q69.20 23.10 68.10 25.67Q67 28.25 65.97 32.62Q64.95 37.00 64.30 42.15Q67.40 38.50 69.42 34.20Q71.45 29.90 71.45 26.40Q71.45 24.80 71.10 23.95Q70.75 23.10 70.10 23.10ZM88.45 65.40Q85.35 65.40 83.50 63.15Q81.65 60.90 81.65 57.25Q81.65 53.25 83.50 49.67Q85.35 46.10 88.43 43.92Q91.50 41.75 94.95 41.75Q96.05 41.75 96.43 42.17Q96.80 42.60 97.05 43.70Q98.10 43.50 99.25 43.50Q101.70 43.50 101.70 45.25Q101.70 46.30 100.95 50.25Q99.80 56.00 99.80 58.25Q99.80 59.00 100.18 59.45Q100.55 59.90 101.15 59.90Q102.10 59.90 103.45 58.67Q104.80 57.45 107.10 54.70Q107.70 54.00 108.45 54.00Q109.10 54.00 109.48 54.60Q109.85 55.20 109.85 56.25Q109.85 58.25 108.90 59.35Q106.85 61.90 104.55 63.65Q102.25 65.40 100.10 65.40Q98.45 65.40 97.08 64.27Q95.70 63.15 95 61.20Q92.40 65.40 88.45 65.40M90.25 60.35Q91.35 60.35 92.35 59.05Q93.35 57.75 93.80 55.60L95.65 46.40Q93.55 46.45 91.78 47.97Q90 49.50 88.95 52.00Q87.90 54.50 87.90 57.30Q87.90 58.85 88.53 59.60Q89.15 60.35 90.25 60.35ZM128.10 54.00Q128.75 54.00 129.13 54.60Q129.50 55.20 129.50 56.25Q129.50 58.25 128.55 59.35Q126.40 62.00 123.85 63.70Q121.30 65.40 118 65.40Q107.80 65.40 107.80 51.05Q107.80 48.85 107.95 46.60L106 46.60Q104.50 46.60 103.98 46.05Q103.45 45.50 103.45 44.30Q103.45 41.50 105.70 41.50L108.55 41.50Q109.40 36.00 111.15 31.45Q112.90 26.90 115.38 24.20Q117.85 21.50 120.70 21.50Q122.80 21.50 124 23.35Q125.20 25.20 125.20 28.00Q125.20 35.75 118.70 41.50L124.30 41.50Q125.10 41.50 125.45 41.85Q125.80 42.20 125.80 43.15Q125.80 46.60 120.15 46.60L114.05 46.60Q113.95 49.10 113.95 50.50Q113.95 55.70 115.18 57.80Q116.40 59.90 119.05 59.90Q121.20 59.90 122.85 58.60Q124.50 57.30 126.75 54.70Q127.35 54.00 128.10 54.00M119.35 26.30Q118.60 26.30 117.68 28.17Q116.75 30.05 115.93 33.37Q115.10 36.70 114.55 40.75Q117.50 38.20 118.98 35.02Q120.45 31.85 120.45 29.25Q120.45 26.30 119.35 26.30ZM148.25 65.40Q143.35 65.40 140.63 62.62Q137.90 59.85 137.90 55.30Q137.90 51.25 139.50 48.20Q141.10 45.15 143.65 43.50Q146.20 41.85 149 41.85Q151.75 41.85 153.28 43.47Q154.80 45.10 154.80 47.65Q154.80 49.75 153.88 51.20Q152.95 52.65 151.45 52.65Q150.50 52.65 149.93 52.20Q149.35 51.75 149.35 50.95Q149.35 50.60 149.45 50.15Q149.55 49.70 149.60 49.50Q149.85 48.75 149.85 48.10Q149.85 47.45 149.53 47.10Q149.20 46.75 148.60 46.75Q147.45 46.75 146.45 47.77Q145.45 48.80 144.85 50.55Q144.25 52.30 144.25 54.40Q144.25 60.20 149.30 60.20Q151.35 60.20 153.73 58.82Q156.10 57.45 158.40 54.70Q159 54.00 159.75 54.00Q160.40 54.00 160.78 54.60Q161.15 55.20 161.15 56.25Q161.15 58.15 160.20 59.35Q157.85 62.25 154.58 63.82Q151.30 65.40 148.25 65.40ZM163.25 65.40Q160.15 65.40 158.30 63.15Q156.45 60.90 156.45 57.25Q156.45 53.25 158.30 49.67Q160.15 46.10 163.23 43.92Q166.30 41.75 169.75 41.75Q170.85 41.75 171.23 42.17Q171.60 42.60 171.85 43.70Q172.90 43.50 174.05 43.50Q176.50 43.50 176.50 45.25Q176.50 46.30 175.75 50.25Q174.60 56.00 174.60 58.25Q174.60 59.00 174.98 59.45Q175.35 59.90 175.95 59.90Q176.90 59.90 178.25 58.67Q179.60 57.45 181.90 54.70Q182.50 54.00 183.25 54.00Q183.90 54.00 184.28 54.60Q184.65 55.20 184.65 56.25Q184.65 58.25 183.70 59.35Q181.65 61.90 179.35 63.65Q177.05 65.40 174.90 65.40Q173.25 65.40 171.88 64.27Q170.50 63.15 169.80 61.20Q167.20 65.40 163.25 65.40M165.05 60.35Q166.15 60.35 167.15 59.05Q168.15 57.75 168.60 55.60L170.45 46.40Q168.35 46.45 166.58 47.97Q164.80 49.50 163.75 52.00Q162.70 54.50 162.70 57.30Q162.70 58.85 163.33 59.60Q163.95 60.35 165.05 60.35ZM184.15 65.40Q182.25 65.40 181.48 63.40Q180.70 61.40 180.70 57.00Q180.70 50.50 182.55 44.65Q183.00 43.20 184.03 42.52Q185.05 41.85 186.90 41.85Q187.90 41.85 188.30 42.10Q188.70 42.35 188.70 43.05Q188.70 43.85 187.95 46.65Q187.45 48.65 187.15 50.15Q186.85 51.65 186.65 53.85Q188.30 49.55 190.35 46.85Q192.40 44.15 194.38 43.00Q196.35 41.85 198.00 41.85Q201.25 41.85 201.25 45.10Q201.25 47.05 200.15 52.15Q199.20 56.50 199.20 57.90Q199.20 59.90 200.65 59.90Q201.65 59.90 203.03 58.67Q204.40 57.45 206.70 54.70Q207.30 54.00 208.05 54.00Q208.70 54.00 209.08 54.60Q209.45 55.20 209.45 56.25Q209.45 58.25 208.50 59.35Q206.35 62.00 203.88 63.70Q201.40 65.40 198.25 65.40Q195.70 65.40 194.40 63.92Q193.10 62.45 193.10 59.65Q193.10 58.25 193.80 54.65Q194.45 51.50 194.45 50.30Q194.45 49.50 193.90 49.50Q193.25 49.50 192.08 51.17Q190.90 52.85 189.68 55.60Q188.45 58.35 187.70 61.40Q187.15 63.75 186.43 64.57Q185.70 65.40 184.15 65.40ZM240.95 23.05Q242.25 23.05 243.15 23.67Q244.05 24.30 244.05 25.20Q244.05 26.80 243.05 27.77Q242.05 28.75 240.20 28.75Q237.30 28.75 235.80 28.80Q235.70 29.40 234.90 34.20Q234.00 39.55 233.80 40.75L232.75 47.30Q231.65 54.65 231.00 59.60Q232.05 59.55 233.85 59.55Q236.50 59.55 237.45 60.25Q238.40 60.95 238.40 62.35Q238.40 63.65 237.38 64.55Q236.35 65.45 234.50 65.45Q233.25 65.45 230.55 65.35Q228.05 65.25 227.25 65.25Q224.10 65.25 220.35 65.80Q218.70 66.05 218.00 66.05Q216.90 66.05 216.15 65.45Q215.40 64.85 215.40 63.70Q215.40 61.90 217.00 60.90Q218.60 59.90 221.50 59.85L223.85 59.80L224.00 58.70Q225.20 50.70 225.75 47.40L226.85 40.85Q227.85 35.05 228.65 28.90L224.45 28.95Q222.65 28.95 221.98 28.37Q221.30 27.80 221.30 26.75Q221.30 23.35 226.20 23.10Q228.50 23.00 231.80 23.00L240.95 23.05ZM285.05 54.00Q285.70 54.00 286.08 54.60Q286.45 55.20 286.45 56.25Q286.45 58.25 285.50 59.35Q283.45 61.85 281 63.62Q278.55 65.40 276.15 65.40Q272.35 65.40 270.35 60.95Q268.25 63.60 266.68 64.50Q265.10 65.40 263 65.40Q259.95 65.40 257.98 63.12Q256 60.85 256 57.20Q256 53.20 257.70 49.77Q259.40 46.35 262.38 44.17Q265.35 42.00 269.05 41.60Q270 31.90 272.68 25.02Q275.35 18.15 279.70 18.15Q281.85 18.15 283.28 20.10Q284.70 22.05 284.70 26.00Q284.70 31.60 281.95 39.10Q279.20 46.60 274.60 54.50Q274.80 57.40 275.48 58.65Q276.15 59.90 277.20 59.90Q278.55 59.90 279.95 58.70Q281.35 57.50 283.70 54.70Q284.30 54.00 285.05 54.00M279.15 23.05Q278.20 23.05 277.25 26.42Q276.30 29.80 275.63 35.25Q274.95 40.70 274.65 46.65Q280.25 34.45 280.25 27.05Q280.25 25.15 279.93 24.10Q279.60 23.05 279.15 23.05M264.75 60.35Q265.70 60.35 266.65 59.57Q267.60 58.80 269.05 56.70Q268.55 54.00 268.55 50.65Q268.55 49.45 268.65 46.75Q265.90 47.60 264.08 50.42Q262.25 53.25 262.25 56.70Q262.25 60.35 264.75 60.35ZM307.90 49.80Q308.55 49.80 308.90 50.45Q309.25 51.10 309.25 52.10Q309.25 54.50 307.80 54.95Q304.80 56.00 301.20 56.15Q300.25 60.35 297.45 62.87Q294.65 65.40 291.10 65.40Q288.10 65.40 285.98 63.95Q283.85 62.50 282.75 60.10Q281.65 57.70 281.65 54.90Q281.65 51.10 283.10 48.12Q284.55 45.15 287.10 43.47Q289.65 41.80 292.75 41.80Q296.55 41.80 298.88 44.42Q301.20 47.05 301.60 50.90Q303.95 50.75 307.20 49.90Q307.60 49.80 307.90 49.80M291.50 60.10Q293.10 60.10 294.27 58.80Q295.45 57.50 295.85 55.05Q294.30 54.00 293.48 52.30Q292.65 50.60 292.65 48.70Q292.65 47.90 292.80 47.10L292.55 47.10Q290.55 47.10 289.23 49.02Q287.90 50.95 287.90 54.45Q287.90 57.20 288.98 58.65Q290.05 60.10 291.50 60.10ZM312.10 53.45Q311.20 53.45 310.65 52.92Q310.10 52.40 310.15 51.20Q310.35 48.05 311.65 45.60Q312.95 43.15 316 40.10Q318.85 37.30 320.10 35.35Q321.35 33.40 321.35 31.30Q321.35 27.85 317.50 27.85Q315.20 27.85 314 28.87Q312.80 29.90 312.80 31.45L312.85 33.50Q312.85 34.35 312.23 34.97Q311.60 35.60 310.25 35.60Q308.70 35.60 307.88 34.67Q307.05 33.75 307.05 32.05Q307.05 29.55 308.28 27.47Q309.50 25.40 312 24.15Q314.50 22.90 318.15 22.90Q323.10 22.90 325.82 25.02Q328.55 27.15 328.55 31.15Q328.55 34.30 326.95 36.85Q325.35 39.40 322.15 42.15Q319.45 44.45 318.05 45.90Q316.65 47.35 316.03 48.42Q315.40 49.50 315 50.90Q314.65 52.20 313.88 52.82Q313.10 53.45 312.10 53.45M310.20 65.40Q308 65.40 306.88 64.20Q305.75 63.00 305.75 61.05Q305.75 58.80 307.03 57.45Q308.30 56.10 310.60 56.10Q312.80 56.10 313.93 57.17Q315.05 58.25 315.05 60.35Q315.05 62.65 313.75 64.02Q312.45 65.40 310.20 65.40Z"/></g></g></svg>